<svg width="20" height="20" viewBox="0 0 20 20" fill="none" xmlns="http://www.w3.org/2000/svg">
<path d="M5.83301 9.16667H7.49967V10.8333H5.83301V9.16667ZM5.83301 12.5H7.49967V14.1667H5.83301V12.5ZM9.16634 9.16667H10.833V10.8333H9.16634V9.16667ZM9.16634 12.5H10.833V14.1667H9.16634V12.5ZM12.4997 9.16667H14.1663V10.8333H12.4997V9.16667ZM12.4997 12.5H14.1663V14.1667H12.4997V12.5Z" fill="#687188"/>
<path d="M4.16667 18.3333H15.8333C16.7525 18.3333 17.5 17.5858 17.5 16.6667V5.00001C17.5 4.08084 16.7525 3.33334 15.8333 3.33334H14.1667V1.66667H12.5V3.33334H7.5V1.66667H5.83333V3.33334H4.16667C3.2475 3.33334 2.5 4.08084 2.5 5.00001V16.6667C2.5 17.5858 3.2475 18.3333 4.16667 18.3333ZM15.8333 6.66667L15.8342 16.6667H4.16667V6.66667H15.8333Z" fill="#687188"/>
</svg>
