<svg width="16" height="16" viewBox="0 0 16 16" fill="none" xmlns="http://www.w3.org/2000/svg">
<path fill-rule="evenodd" clip-rule="evenodd" d="M4.9765 0.710656C5.7585 0.674656 6.00784 0.666656 7.99984 0.666656C9.99184 0.666656 10.2412 0.675323 11.0225 0.710656C11.8038 0.74599 12.3372 0.870657 12.8038 1.05132C13.2925 1.23599 13.7358 1.52466 14.1025 1.89799C14.4758 2.26399 14.7638 2.70666 14.9478 3.19599C15.1292 3.66266 15.2532 4.19599 15.2892 4.97599C15.3252 5.75932 15.3332 6.00866 15.3332 7.99999C15.3332 9.99199 15.3245 10.2413 15.2892 11.0233C15.2538 11.8033 15.1292 12.3367 14.9478 12.8033C14.7638 13.2927 14.4754 13.7361 14.1025 14.1027C13.7358 14.476 13.2925 14.764 12.8038 14.948C12.3372 15.1293 11.8038 15.2533 11.0238 15.2893C10.2412 15.3253 9.99184 15.3333 7.99984 15.3333C6.00784 15.3333 5.7585 15.3247 4.9765 15.2893C4.1965 15.254 3.66317 15.1293 3.1965 14.948C2.70712 14.764 2.26372 14.4755 1.89717 14.1027C1.52409 13.7364 1.23538 13.2932 1.05117 12.804C0.870504 12.3373 0.746504 11.804 0.710504 11.024C0.674504 10.2407 0.666504 9.99132 0.666504 7.99999C0.666504 6.00799 0.675171 5.75866 0.710504 4.97732C0.745837 4.19599 0.870504 3.66266 1.05117 3.19599C1.23565 2.70671 1.52458 2.26353 1.89784 1.89732C2.26386 1.52432 2.70682 1.23562 3.19584 1.05132C3.6625 0.870657 4.19584 0.746656 4.97584 0.710656H4.9765ZM10.9632 2.03066C10.1898 1.99532 9.95784 1.98799 7.99984 1.98799C6.04184 1.98799 5.80984 1.99532 5.0365 2.03066C4.32117 2.06332 3.93317 2.18266 3.6745 2.28332C3.3325 2.41666 3.08784 2.57466 2.83117 2.83132C2.58787 3.06802 2.40062 3.35618 2.28317 3.67466C2.1825 3.93332 2.06317 4.32132 2.0305 5.03666C1.99517 5.80999 1.98784 6.04199 1.98784 7.99999C1.98784 9.95799 1.99517 10.19 2.0305 10.9633C2.06317 11.6787 2.1825 12.0667 2.28317 12.3253C2.4005 12.6433 2.58784 12.932 2.83117 13.1687C3.06784 13.412 3.3565 13.5993 3.6745 13.7167C3.93317 13.8173 4.32117 13.9367 5.0365 13.9693C5.80984 14.0047 6.04117 14.012 7.99984 14.012C9.9585 14.012 10.1898 14.0047 10.9632 13.9693C11.6785 13.9367 12.0665 13.8173 12.3252 13.7167C12.6672 13.5833 12.9118 13.4253 13.1685 13.1687C13.4118 12.932 13.5992 12.6433 13.7165 12.3253C13.8172 12.0667 13.9365 11.6787 13.9692 10.9633C14.0045 10.19 14.0118 9.95799 14.0118 7.99999C14.0118 6.04199 14.0045 5.80999 13.9692 5.03666C13.9365 4.32132 13.8172 3.93332 13.7165 3.67466C13.5832 3.33266 13.4252 3.08799 13.1685 2.83132C12.9318 2.58804 12.6436 2.4008 12.3252 2.28332C12.0665 2.18266 11.6785 2.06332 10.9632 2.03066ZM7.06317 10.2607C7.58628 10.4784 8.16876 10.5078 8.71112 10.3438C9.25349 10.1798 9.7221 9.8326 10.0369 9.36149C10.3517 8.89037 10.4932 8.32457 10.4372 7.76073C10.3812 7.19688 10.1312 6.66997 9.72984 6.26999C9.474 6.01431 9.16465 5.81853 8.82406 5.69675C8.48347 5.57498 8.12012 5.53023 7.76017 5.56573C7.40021 5.60124 7.05261 5.71611 6.74237 5.90208C6.43214 6.08805 6.167 6.34049 5.96604 6.64122C5.76508 6.94196 5.6333 7.28352 5.58018 7.6413C5.52707 7.99908 5.55394 8.36419 5.65886 8.71033C5.76379 9.05648 5.94416 9.37506 6.18698 9.64314C6.42981 9.91121 6.72905 10.1221 7.06317 10.2607ZM5.3345 5.33466C5.68452 4.98464 6.10005 4.70699 6.55737 4.51756C7.01469 4.32814 7.50484 4.23064 7.99984 4.23064C8.49484 4.23064 8.98499 4.32814 9.44231 4.51756C9.89962 4.70699 10.3152 4.98464 10.6652 5.33466C11.0152 5.68467 11.2928 6.1002 11.4823 6.55752C11.6717 7.01484 11.7692 7.50499 11.7692 7.99999C11.7692 8.49499 11.6717 8.98514 11.4823 9.44246C11.2928 9.89978 11.0152 10.3153 10.6652 10.6653C9.95828 11.3722 8.99953 11.7693 7.99984 11.7693C7.00014 11.7693 6.04139 11.3722 5.3345 10.6653C4.62761 9.95843 4.23049 8.99968 4.23049 7.99999C4.23049 7.0003 4.62761 6.04155 5.3345 5.33466ZM12.6052 4.79199C12.6919 4.71017 12.7613 4.61178 12.8094 4.50264C12.8574 4.3935 12.883 4.27584 12.8848 4.15661C12.8865 4.03738 12.8643 3.91902 12.8195 3.80853C12.7747 3.69804 12.7081 3.59766 12.6238 3.51335C12.5395 3.42903 12.4391 3.36249 12.3286 3.31767C12.2181 3.27284 12.0998 3.25064 11.9806 3.25238C11.8613 3.25412 11.7437 3.27976 11.6345 3.32779C11.5254 3.37582 11.427 3.44525 11.3452 3.53199C11.186 3.70068 11.0989 3.92474 11.1023 4.15661C11.1057 4.38848 11.1993 4.60991 11.3633 4.77389C11.5273 4.93786 11.7487 5.03148 11.9806 5.03486C12.2124 5.03824 12.4365 4.95112 12.6052 4.79199Z" fill="white"/>
</svg>
