<svg width="20" height="20" viewBox="0 0 20 20" fill="none" xmlns="http://www.w3.org/2000/svg">
<path fill-rule="evenodd" clip-rule="evenodd" d="M5.9375 3.125C5.85462 3.125 5.77513 3.15792 5.71653 3.21653C5.65792 3.27513 5.625 3.35462 5.625 3.4375V15.825L9.40375 12.7137C9.57164 12.5754 9.78243 12.4997 10 12.4997C10.2176 12.4997 10.4284 12.5754 10.5963 12.7137L14.375 15.8263V3.4375C14.375 3.35462 14.3421 3.27513 14.2835 3.21653C14.2249 3.15792 14.1454 3.125 14.0625 3.125H5.9375ZM3.75 3.4375C3.75 2.23 4.73 1.25 5.9375 1.25H14.0625C15.27 1.25 16.25 2.23 16.25 3.4375V17.8125C16.2501 17.9903 16.1996 18.1644 16.1044 18.3146C16.0093 18.4647 15.8734 18.5848 15.7126 18.6606C15.5518 18.7365 15.3728 18.7651 15.1964 18.7431C15.02 18.721 14.8534 18.6493 14.7162 18.5363L10 14.6525L5.28375 18.5363C5.14656 18.6493 4.98005 18.721 4.80364 18.7431C4.62723 18.7651 4.44819 18.7365 4.28742 18.6606C4.12664 18.5848 3.99075 18.4647 3.89559 18.3146C3.80044 18.1644 3.74994 17.9903 3.75 17.8125V3.4375Z" fill="#687188"/>
</svg>
