<svg width="30" height="30" viewBox="0 0 30 30" fill="none" xmlns="http://www.w3.org/2000/svg">
<path fill-rule="evenodd" clip-rule="evenodd" d="M20.4062 18.6237L27.1312 25.3487C27.3676 25.5853 27.5003 25.906 27.5002 26.2404C27.5001 26.5748 27.3671 26.8955 27.1306 27.1319C26.894 27.3682 26.5733 27.501 26.2389 27.5008C25.9045 27.5007 25.5838 27.3678 25.3475 27.1312L18.6225 20.4062C16.6121 21.9633 14.0841 22.6961 11.5526 22.4554C9.02117 22.2148 6.67649 21.0188 4.99556 19.1108C3.31462 17.2027 2.42369 14.726 2.50402 12.1844C2.58435 9.64284 3.62989 7.22731 5.42796 5.42924C7.22603 3.63117 9.64155 2.58563 12.1831 2.5053C14.7247 2.42497 17.2014 3.3159 19.1095 4.99684C21.0175 6.67778 22.2135 9.02246 22.4541 11.5539C22.6948 14.0853 21.962 16.6134 20.405 18.6237H20.4062ZM12.5 20C14.4891 20 16.3967 19.2098 17.8033 17.8033C19.2098 16.3968 20 14.4891 20 12.5C20 10.5109 19.2098 8.60321 17.8033 7.19668C16.3967 5.79016 14.4891 4.99999 12.5 4.99999C10.5108 4.99999 8.60318 5.79016 7.19665 7.19668C5.79013 8.60321 4.99995 10.5109 4.99995 12.5C4.99995 14.4891 5.79013 16.3968 7.19665 17.8033C8.60318 19.2098 10.5108 20 12.5 20ZM16.25 13.75H13.75V16.25C13.75 16.5815 13.6183 16.8994 13.3838 17.1339C13.1494 17.3683 12.8315 17.5 12.5 17.5C12.1684 17.5 11.8505 17.3683 11.6161 17.1339C11.3816 16.8994 11.25 16.5815 11.25 16.25V13.75H8.74995C8.41843 13.75 8.10049 13.6183 7.86607 13.3839C7.63165 13.1494 7.49995 12.8315 7.49995 12.5C7.49995 12.1685 7.63165 11.8505 7.86607 11.6161C8.10049 11.3817 8.41843 11.25 8.74995 11.25H11.25V8.74999C11.25 8.41847 11.3816 8.10052 11.6161 7.8661C11.8505 7.63168 12.1684 7.49999 12.5 7.49999C12.8315 7.49999 13.1494 7.63168 13.3838 7.8661C13.6183 8.10052 13.75 8.41847 13.75 8.74999V11.25H16.25C16.5815 11.25 16.8994 11.3817 17.1338 11.6161C17.3683 11.8505 17.5 12.1685 17.5 12.5C17.5 12.8315 17.3683 13.1494 17.1338 13.3839C16.8994 13.6183 16.5815 13.75 16.25 13.75Z" fill="white"/>
</svg>
