<svg id="Слой_1" data-name="Слой 1" xmlns="http://www.w3.org/2000/svg" viewBox="0 0 610.54 364.49"><defs><style>.cls-1{fill:#fff;stroke:#fff;stroke-miterlimit:10;}</style></defs><title>soul</title><g id="Слой_2" data-name="Слой 2"><g id="Слой_1-2" data-name="Слой 1-2"><path class="cls-1" d="M484.36,376.09s9.79-10.39,39.48-3.86L539,389.15l8.61-19.07s2.08-6.75,10.39-4.38l13.65,5.35L569,424.78l12.77,14.3q4.43-13.4,8.87-26.8l5-15.22c2.08-6.28,4-12.67,7.82-18.15,3.19-4.57,8.08-9.56,14.19-8.75v4.45c0,1.07-2.31,2.45-3,3.19-6,6.18-8,14.75-10.47,22.72l-5.25,17.17-9.38,30.73c-.22.73-.45,1.45-.67,2.18l39.78,49a5.17,5.17,0,0,1-3.53,8.07A29.3,29.3,0,0,1,620,509a30.41,30.41,0,0,1-15.1-1.41s-24.64-21.37-25.83-27.31l-14,30.23s-21.67.05-27.61-10.64l4.16-65.31-8.61-8.9L499.79,507.9s-2.37,4.15-6.23,0L528,418l-27-30.87s-10.69-11.28-16.62-11" transform="translate(-332.73 -146.52)"/><path class="cls-1" d="M632.23,367.55l28.62,2.83S669,373.56,669,381v80.55h39.21v-80.2s-1.76-9.19-9.54-13.78l28.62,2.83s8.48,0,9.54,11,0,122.86,0,123.31c0,4-7,3.6-9.71,3.42-7.75-.51-17-5-19.26-13l-.35-23.32-36.75-.35s-.35,29.46-.35,29.67c-.47,8.12-12.94,4.41-18.24,4.21-7-1.22-12.53-5.95-13.91-13V382.39Z" transform="translate(-332.73 -146.52)"/><path class="cls-1" d="M763.11,418.45c.87-16.11,3.53-32.33,9.57-47.12,0,0,15.87-6.44,26.81-1.5v4.5a15.09,15.09,0,0,0-7.08,10.73c-1.29,15.42-2.07,30.9-1.88,46.38.18,14.44.61,29.65,4,43.76a47.74,47.74,0,0,0,2.5,7.73c2.56,6,8.55,10.7,15.37,8.09,4.83-1.85,7.66-7.07,8.85-11.82,1.71-6.89,2.17-14.41,2.72-21.46a254.14,254.14,0,0,0-.76-43c-1.19-13-4-26.07-10.21-37.7l-.19-.35,8.79.43c2,.1,2.09,2.92,2.33,3.74a181,181,0,0,1,6.88,38.41c1.42,20,1.75,40.59-3.29,60.11-3.31,12.82-10.19,25.63-24.35,28-11.94,2-22-5.53-25.27-9.07-6.63-7.27-9.48-16.19-11.45-25.64a194.76,194.76,0,0,1-3.64-37c-.07-5.68,0-11.45.32-17.23" transform="translate(-332.73 -146.52)"/><path class="cls-1" d="M474.17,419.35a182.41,182.41,0,0,0-6.89-38.51,4.52,4.52,0,0,1-.11-.53c-.23-1.21-.65-3.47-2.68-3.58l-9.64-.47.38.77.15.27.05.09c5.46,10.25,8.78,22.52,10.15,37.51,1.51,16.54,1.75,30.18.76,42.92l-.14,1.88c-.5,6.52-1,13.26-2.57,19.49-1.42,5.68-4.61,10-8.54,11.48-6.74,2.59-12.36-2.24-14.74-7.82a48,48,0,0,1-2.46-7.65c-3.34-13.92-3.78-28.59-4-43.65-.18-13.92.43-29.08,1.87-46.31a14.74,14.74,0,0,1,6.83-10.36l.26-.14v-5.12l-.3-.13c-11-5-26.54,1.22-27.2,1.49l-.19.08-.08.19C410,383.7,407,398,405.75,414.7l-29.6,51.84c.22-36,.34-78.57-.29-85.14-1.06-10.94-9.43-11.4-10-11.4L335,366.94l2,1.15c7.47,4.42,9.28,13.35,9.29,13.35v80.2l-.35,33.57v.14c2.3,8.06,11.65,12.8,19.7,13.32.68.05,1.66.11,2.75.11,2.27,0,5-.28,6.46-1.63a3.19,3.19,0,0,0,1-2.4v-1.1c0-2,.06-6.53.11-12.74l-.06.1V489.9l29.3-52.85v0a190.42,190.42,0,0,0,3.62,35.88c1.76,8.45,4.51,18.14,11.57,25.87,3.26,3.59,11.52,9.58,21.56,9.58a25.21,25.21,0,0,0,4.16-.35c12.09-2.06,20.42-11.62,24.75-28.41,5.24-20.29,4.61-41.85,3.3-60.27" transform="translate(-332.73 -146.52)"/><path class="cls-1" d="M931.15,368.79H832.93c2.07,4.8,8.61,10.42,9.65,11.31l13-.36a.54.54,0,0,1,.36.14.48.48,0,0,1,.15.36l1.55,114.11a17.78,17.78,0,0,0,13.23,12.53H871c2.65,0,61.7.12,65.11,0,3-.12,3.17-2.25,3.18-2.35V501c0-3.26-1.15-3.3-1.16-3.3l-47.49-.7c-6.78-1-6.27-8.9-6.26-9l-.29-19.37a.48.48,0,0,1,.15-.36.47.47,0,0,1,.35-.15h27.58a1.65,1.65,0,0,0,1.17-.64,5,5,0,0,0,.59-3.15c-1.4-4.31-4-4.77-4.08-4.78h-25.4a.52.52,0,0,1-.5-.5l.71-79.79a.51.51,0,0,1,.49-.5l41.24-.42h0c1.47,0,2.94,1.85,4.3,3.85l.11.16a25.26,25.26,0,0,1,2.64,5.4c.26.74.51,1.51.77,2.29.77,2.39,1.57,4.86,3.11,6.7.91,1.08,2.42,2.11,3.61,1.8.38-.09.81-.44.79-.74-1.18-22.16-9.56-28.38-10.58-29.06" transform="translate(-332.73 -146.52)"/><path class="cls-1" d="M931.54,367.85a.54.54,0,0,0-.25-.06H832.2a.49.49,0,0,0-.5.48.57.57,0,0,0,0,.18c1.94,5.59,10,12.26,10.36,12.54a.55.55,0,0,0,.33.11l12.69-.34,1.54,113.67v.13a18.82,18.82,0,0,0,14.13,13.31c1.66,0,28,.06,46.75.06,9.7,0,17.38,0,18.57-.06,3.92-.16,4.13-3.26,4.13-3.32V501c0-1.88-.37-3.17-1.1-3.84a1.47,1.47,0,0,0-1.08-.46L890.7,496c-5.79-.9-5.37-7.63-5.35-8l-.27-18.91H912.2a2.66,2.66,0,0,0,1.91-1c1.12-1.42.8-3.81.77-4-1.62-5-4.77-5.52-5-5.55H885l.69-78.79,40.74-.42c1.14,0,2.85,2.48,3.49,3.42l.11.16a23.87,23.87,0,0,1,2.52,5.18c.26.72.51,1.48.76,2.24.8,2.49,1.63,5.05,3.3,7,1,1.26,2.89,2.58,4.62,2.13a1.94,1.94,0,0,0,1.54-1.76c-1.29-24.12-10.79-29.72-11.19-30m9.4,30.74c-1.19.31-2.7-.72-3.61-1.8-1.54-1.84-2.34-4.31-3.11-6.7-.26-.78-.51-1.55-.77-2.29a25.26,25.26,0,0,0-2.64-5.4l-.11-.16c-1.36-2-2.83-3.85-4.3-3.85h0l-41.24.42a.51.51,0,0,0-.49.5L884,459.1a.52.52,0,0,0,.5.5h25.4c.11,0,2.68.47,4.08,4.78a5,5,0,0,1-.59,3.15,1.65,1.65,0,0,1-1.17.64H884.59a.47.47,0,0,0-.35.15.48.48,0,0,0-.15.36l.28,19.37c0,.08-.51,7.93,6.27,9l47.45.71s1.16,0,1.16,3.3v3.48c0,.09-.19,2.23-3.18,2.35-3.41.13-62.46,0-65.11,0h-.09a17.75,17.75,0,0,1-13.23-12.52L856.1,380.24a.48.48,0,0,0-.15-.36.54.54,0,0,0-.36-.14l-13,.36c-1-.89-7.58-6.51-9.65-11.31h98.22c1,.68,9.4,6.9,10.58,29.06,0,.3-.41.64-.79.74" transform="translate(-332.73 -146.52)"/><path class="cls-1" d="M558.48,257.88c-17.17-10.19-34.58-9.29-52-.19-25.79,12.13-42,34.39-52.91,60.07a84.65,84.65,0,0,0-3,8.44l-4.43-3.11a16.82,16.82,0,0,0,1.77-1.6,17.6,17.6,0,0,1,6.14-3.88c8.72-3.38,17.8-3.83,26.93-4.75,5.61-.76,11.38-2.05,17.19-3.17,11.31-2.19,22.8-4,32.6-9.92,14.65-9.18,23.93-25.23,27.62-41.89m.63-.3a61.7,61.7,0,0,1-17.75,41.2c-6.44,6.78-15.31,11.33-24.09,14a173.86,173.86,0,0,1-17.59,4.1c-5.91,1.17-11.76,2.35-17.81,3-8.52.63-17.5.54-25.57,3.4a12.56,12.56,0,0,0-3.92,2.13,27.54,27.54,0,0,1-2.74,2.32L442.37,333c1.81-5.35,4-12.38,6.27-17.44,12-26,29.65-49.1,56.65-60.5,18-8.63,37-9.24,53.82,2.48" transform="translate(-332.73 -146.52)"/><path class="cls-1" d="M616.58,265.57c3.85,1.55,2.86,10.26,2.66,13.69a27.54,27.54,0,0,1-1.58,7c-7.36,21.69-30.37,30-48.7,40.2a331.82,331.82,0,0,0-29.45,17.36c.5-3.33.78-8.46,1.58-11.63,7-26,22.34-51.9,47.3-63.93,8.73-4.09,18.94-5.72,28.19-2.71m-.2.67c-13.92-4.1-27.27,4.46-36.64,14.06-14.35,14.62-26,32.32-32.5,51.84a29.34,29.34,0,0,0-1.44,6.48l-4.27-2.79c16.38-9.79,34-17.19,50.82-25.94,10.08-5.5,19.92-13,24.38-24a25,25,0,0,0,1.83-6.74c.29-3.28,1.21-11.33-2.18-13" transform="translate(-332.73 -146.52)"/><path class="cls-1" d="M587.52,231.11c-3,7.32-14.65,7.28-21.36,7.45A53.27,53.27,0,0,1,543,233.21a146.89,146.89,0,0,1-20.27-12.33c-8.16-5.56-15.33-13.12-21.31-21.15a106.13,106.13,0,0,0,25.31-.73c6.52-.8,13-2.63,19.43-3.59C557.6,194,570,197.32,578,205.86c.28.33,2,2.13,2.2,2.43s.86,1.22,1.14,1.58l1.5,2.1-.12-.13c4.13,5.45,6.49,12.52,4.81,19.27m-.68-.17c1.4-6.35-1.72-12.94-6.36-17.18a35.63,35.63,0,0,0-15.55-9.63,45,45,0,0,0-22.45-.76c-1.23.26-3.75.69-5,.88a131.48,131.48,0,0,1-30.38,1.31l2.47-4.38c6.52,9.14,15.78,16.67,25.16,22.94,11.19,7.6,23.34,13.68,37.3,13.25,5.26-.06,12.58-.89,14.81-6.43" transform="translate(-332.73 -146.52)"/><path class="cls-1" d="M682.82,223.39c-9.82,8.49-28.22.76-38.6-3.74-12.58-5.45-23.94-14.39-30.52-26.65-2.72-4.71-4.19-10.22-6-15.2a71.65,71.65,0,0,0-7.15-13.8,107.66,107.66,0,0,0-13.67-16.6,187.1,187.1,0,0,1,23.68,0c11.87,1,23.72,2.44,35,6.8,14,5.2,27.85,13.59,35.49,26.92,5.89,10.24,11.62,33.17,1.83,42.27m-.47-.51c7.9-8.21,3.06-23-1.22-32-7.64-15.16-22.87-24-38.27-30-10.4-4.1-21.73-6.17-32.87-7.49a142,142,0,0,0-17-.81l1.94-4.58a93.22,93.22,0,0,1,9.79,13.33,76.59,76.59,0,0,1,7.12,15c1.72,5.13,2.81,10.16,5.33,14.88,5.91,11.72,16.37,20.63,27.9,26.71,9.92,5.25,27.38,13.56,37.27,5" transform="translate(-332.73 -146.52)"/><path class="cls-1" d="M776.05,279.92c-4.76,1.89-10.3-1-14.27-3.57a58.47,58.47,0,0,1-5.88-4.64l-1.41-1.24-1.31-1.33c-9.8-9.56-17.52-21.28-24.47-33-3.43-6-7.32-13.57-10.86-19.53-5.54-10-13.27-22.21-19.32-32,13.25,4.93,26.56,10.06,39.55,15.66,16.1,7.13,33.42,14.88,43.47,30.17a41,41,0,0,1,6,26.28A33.16,33.16,0,0,1,776,279.91m-.4-.57A28.19,28.19,0,0,0,784.08,265a39.25,39.25,0,0,0-7.58-31c-6.76-8.6-16.41-14.69-26-19.91a496,496,0,0,0-46.6-21.81l3.21-3.85c2.68,4.74,8.68,14.85,11,19.52,1.76,3.31,5.24,9.92,7,13.22,7.69,15.31,15.61,31,26.37,44.44.78.88,2.9,3.31,3.67,4.16,1.3,1.21,2.71,2.62,4,3.79l2.93,2.24a23.79,23.79,0,0,0,8.28,3.83,9.66,9.66,0,0,0,5.22-.28" transform="translate(-332.73 -146.52)"/><path class="cls-1" d="M558.65,257.47c18.85-10,40.1-14.93,61.25-16.86l6.39-.49c2.22-.07,7.49-.19,9.61-.24,3.69.06,9.14.12,12.82.39l9.6.75c13.44,3,26.6,6.76,39.7,10.87,20.34,6.45,40.57,14,59,25,11.09,6.58,21.8,14.22,30.47,23.85a55.8,55.8,0,0,1,11,17.39.3.3,0,0,1-.17.38h0a.28.28,0,0,1-.36-.13,65.32,65.32,0,0,0-12.74-15.46c-15-13.48-33.12-22.66-51.4-31-12.28-5.56-24.76-10.68-37.48-15.16-12.4-4.41-26.63-8.69-38.55-11.78l-11-1.16c-2.93-.13-8.1-.48-11-.56h-9.46c-1.9.1-7.57.34-9.45.44-3,.31-6.44.53-9.43.9-16.68,2.13-33.39,6.09-48.58,13.43a.3.3,0,0,1-.41-.1v0a.31.31,0,0,1,.13-.4" transform="translate(-332.73 -146.52)"/><path class="cls-1" d="M616.94,265.51s13.19-22.32,23-24" transform="translate(-332.73 -146.52)"/><path class="cls-1" d="M586.94,233s2.73,9.76,20,10.37" transform="translate(-332.73 -146.52)"/><path class="cls-1" d="M682,224.45s13,23.17,24.48,33.07" transform="translate(-332.73 -146.52)"/><line class="cls-1" x1="448.13" y1="150.06" x2="442.49" y2="134.01"/><path class="cls-1" d="M714,286s34.74-8.47,43.74-6.15" transform="translate(-332.73 -146.52)"/><path class="cls-1" d="M713.39,286.23a62.79,62.79,0,0,0-26.83-13.36c-14.6-2.93-30.81-1.19-43.3,7.16-4.26,2.78-7.31,6.49-10.62,10.41a155.07,155.07,0,0,1-23,21l-.5-4.23a118.35,118.35,0,0,0,49.64,8,97.5,97.5,0,0,0,21.38-2.77,38.85,38.85,0,0,0,12.65-5.74c7.42-5.79,14.41-13.38,20.63-20.51m.59-.07a14,14,0,0,1-1,1.82c-1,1.56-2,3.23-3,4.73a117.14,117.14,0,0,1-9.23,11.84,39.46,39.46,0,0,1-11.92,9.88c-14.66,7.54-36.48,8.44-52.55,5.92A131.16,131.16,0,0,1,603.18,310l3.55-2.48a148.43,148.43,0,0,0,23-19.69c3.4-3.82,7.13-8,11.63-10.67,22.27-13.81,54.3-9.33,72.65,9" transform="translate(-332.73 -146.52)"/><path class="cls-1" d="M451.05,321.15c17.79-27.89,50.41-55.08,83.31-61.8a94.05,94.05,0,0,1,24.43-1.82v.4c-31.87,4.31-62.41,17.28-85.93,39.45a155.44,155.44,0,0,0-21.48,24l-.34-.21" transform="translate(-332.73 -146.52)"/><path class="cls-1" d="M464,312.94s1.94-10.24,6-14.15" transform="translate(-332.73 -146.52)"/><path class="cls-1" d="M469.36,308.72S473,297,478,292.07" transform="translate(-332.73 -146.52)"/><path class="cls-1" d="M476.05,302.11s3.48-11.53,8.35-16.05" transform="translate(-332.73 -146.52)"/><path class="cls-1" d="M480.3,301.87a48.9,48.9,0,0,1,10.18-19.5" transform="translate(-332.73 -146.52)"/><path class="cls-1" d="M484.51,301.83a60.2,60.2,0,0,1,3.47-9.58,61,61,0,0,1,7.92-12.8" transform="translate(-332.73 -146.52)"/><path class="cls-1" d="M490.23,296.45a61.78,61.78,0,0,1,11.51-21" transform="translate(-332.73 -146.52)"/><path class="cls-1" d="M490.07,307.46A76.92,76.92,0,0,1,508,272.8" transform="translate(-332.73 -146.52)"/><path class="cls-1" d="M497,302.11a74.34,74.34,0,0,1,6.65-18.57,72,72,0,0,1,9.46-14" transform="translate(-332.73 -146.52)"/><path class="cls-1" d="M502.51,298.09A73.55,73.55,0,0,1,508.86,280a70.31,70.31,0,0,1,9-13.64" transform="translate(-332.73 -146.52)"/><path class="cls-1" d="M506.25,297.36q2.87-7.56,6.24-15.54,3.24-7.59,6.54-14.61" transform="translate(-332.73 -146.52)"/><path class="cls-1" d="M509.16,297.87c2.49-5.11,5-10.56,7.4-16.32q3.3-7.89,6-15.27" transform="translate(-332.73 -146.52)"/><path class="cls-1" d="M513.68,294.32c2.56-4.61,5.17-9.74,7.66-15.4,2.37-5.37,4.33-10.49,6-15.27" transform="translate(-332.73 -146.52)"/><path class="cls-1" d="M512.33,301.52a148,148,0,0,0,13.23-23.23,144.77,144.77,0,0,0,6-15.29" transform="translate(-332.73 -146.52)"/><path class="cls-1" d="M518.41,298.7a150.66,150.66,0,0,0,19.23-38.5" transform="translate(-332.73 -146.52)"/><path class="cls-1" d="M524.72,296.72a126.69,126.69,0,0,0,11-23.5,123.93,123.93,0,0,0,3.6-12.22" transform="translate(-332.73 -146.52)"/><path class="cls-1" d="M528,295.93a126.69,126.69,0,0,0,11-23.5c1.49-4.29,2.66-8.39,3.58-12.23" transform="translate(-332.73 -146.52)"/><path class="cls-1" d="M532,294.73a126.3,126.3,0,0,0,11-23.49c1.49-4.29,2.66-8.39,3.58-12.23A38,38,0,0,0,527,250.45" transform="translate(-332.73 -146.52)"/><path class="cls-1" d="M536.34,294.09a125.75,125.75,0,0,0,11-23.5,123.21,123.21,0,0,0,3.58-12.23" transform="translate(-332.73 -146.52)"/><path class="cls-1" d="M544.13,284.16a70.8,70.8,0,0,0,9.62-25.85" transform="translate(-332.73 -146.52)"/><path class="cls-1" d="M548.92,279.87a48.59,48.59,0,0,0,7.49-22" transform="translate(-332.73 -146.52)"/><path class="cls-1" d="M552.67,257.73a37.85,37.85,0,0,0-16.81-7.54" transform="translate(-332.73 -146.52)"/><path class="cls-1" d="M541.22,259.67a39.43,39.43,0,0,0-24-7.07" transform="translate(-332.73 -146.52)"/><path class="cls-1" d="M534,260.2a45,45,0,0,0-27.21-3.89" transform="translate(-332.73 -146.52)"/><path class="cls-1" d="M527.4,262.12a28.39,28.39,0,0,0-4.87-2.1,34,34,0,0,0-11.74-1.34c-1.56,0-4.6.18-7.42.37l-1,.07" transform="translate(-332.73 -146.52)"/><path class="cls-1" d="M524,263.88a57.15,57.15,0,0,0-29.12-.56" transform="translate(-332.73 -146.52)"/><path class="cls-1" d="M516.83,266.38a125.4,125.4,0,0,0-15.74-.87c-3.57,0-6.93.21-10.08.49" transform="translate(-332.73 -146.52)"/><line class="cls-1" x1="175.78" y1="122.73" x2="154.03" y2="122.73"/><line class="cls-1" x1="171.86" y1="124.96" x2="151.67" y2="125.3"/><line class="cls-1" x1="167.17" y1="128.04" x2="147.88" y2="128.04"/><line class="cls-1" x1="162.7" y1="131.22" x2="142.41" y2="131.54"/><line class="cls-1" x1="160.07" y1="134.13" x2="141.18" y2="134.57"/><line class="cls-1" x1="155.56" y1="136.61" x2="140.51" y2="136.87"/><line class="cls-1" x1="152.22" y1="139.12" x2="138.38" y2="139.3"/><line class="cls-1" x1="149.17" y1="141.53" x2="135.48" y2="142.06"/><line class="cls-1" x1="145.71" y1="144.12" x2="134.24" y2="144.41"/><line class="cls-1" x1="143.05" y1="146.78" x2="132.68" y2="146.78"/><line class="cls-1" x1="140.42" y1="149.2" x2="131.23" y2="148.88"/><line class="cls-1" x1="137.87" y1="151.35" x2="130.22" y2="151.06"/><line class="cls-1" x1="135.83" y1="153.7" x2="128.27" y2="153.7"/><line class="cls-1" x1="133.36" y1="156.27" x2="127.04" y2="157.04"/><line class="cls-1" x1="131.23" y1="158.57" x2="125.58" y2="159.34"/><line class="cls-1" x1="128.03" y1="162.2" x2="123.29" y2="164.25"/><line class="cls-1" x1="128.72" y1="160.94" x2="124.71" y2="161.54"/><line class="cls-1" x1="125.02" y1="165.84" x2="122.07" y2="166.87"/><line class="cls-1" x1="123.29" y1="168.04" x2="120.03" y2="169.17"/><path class="cls-1" d="M604.65,309a158.78,158.78,0,0,0,57.17-1.31,165.91,165.91,0,0,0,52.4-22.11l.25.31a83.06,83.06,0,0,1-12.73,10.4c-20,13.24-44.83,16.89-68.38,16.61a144.73,144.73,0,0,1-28.8-3.51l.09-.39" transform="translate(-332.73 -146.52)"/><path class="cls-1" d="M618.09,306.86s7.6,5,12.69,5" transform="translate(-332.73 -146.52)"/><path class="cls-1" d="M624.23,306.29s9.68,4.91,16,5" transform="translate(-332.73 -146.52)"/><path class="cls-1" d="M632.7,306.42s9.4,4.88,15.39,4.8" transform="translate(-332.73 -146.52)"/><path class="cls-1" d="M635.63,304.15a46.33,46.33,0,0,0,7.64,3.43A46.86,46.86,0,0,0,654.36,310" transform="translate(-332.73 -146.52)"/><path class="cls-1" d="M638.42,301.77a57.52,57.52,0,0,0,8.19,3.73,59.06,59.06,0,0,0,13.1,3.1" transform="translate(-332.73 -146.52)"/><path class="cls-1" d="M645.49,301.71a57.26,57.26,0,0,0,9.37,3.71A60.55,60.55,0,0,0,666,307.64" transform="translate(-332.73 -146.52)"/><path class="cls-1" d="M638.57,295.25a71.47,71.47,0,0,0,17.06,7.54,74.73,74.73,0,0,0,16.11,2.89" transform="translate(-332.73 -146.52)"/><path class="cls-1" d="M646.41,294.5a69,69,0,0,0,15.84,7.26,70.33,70.33,0,0,0,14.86,3" transform="translate(-332.73 -146.52)"/><path class="cls-1" d="M652.52,293.74a68.2,68.2,0,0,0,29.68,10.11" transform="translate(-332.73 -146.52)"/><path class="cls-1" d="M655.43,292q6.54,2.87,13.69,5.7,6.81,2.69,13.31,5" transform="translate(-332.73 -146.52)"/><path class="cls-1" d="M657,290.08q7.2,2.43,14.94,5.51,7,2.81,13.34,5.7" transform="translate(-332.73 -146.52)"/><path class="cls-1" d="M662.17,289.62c4.53,1.28,9.41,2.86,14.54,4.8,4.87,1.85,9.32,3.78,13.34,5.7" transform="translate(-332.73 -146.52)"/><path class="cls-1" d="M656.83,286.1a143.07,143.07,0,0,1,23,6.29,141.05,141.05,0,0,1,13.34,5.7" transform="translate(-332.73 -146.52)"/><path class="cls-1" d="M662.56,284.32a140.07,140.07,0,0,1,36.37,12" transform="translate(-332.73 -146.52)"/><path class="cls-1" d="M667.92,281.9a120.34,120.34,0,0,1,21.74,7.71c3.63,1.7,6.93,3.48,9.91,5.25" transform="translate(-332.73 -146.52)"/><path class="cls-1" d="M670.56,280.51a118.83,118.83,0,0,1,21.74,7.71c3.63,1.7,6.93,3.48,9.91,5.24" transform="translate(-332.73 -146.52)"/><path class="cls-1" d="M674.69,278.89a111.5,111.5,0,0,1,30.8,12.8,68.93,68.93,0,0,1-2.62,7.12,21,21,0,0,1-1.62,3.08,20.68,20.68,0,0,1-1.68,2.26" transform="translate(-332.73 -146.52)"/><path class="cls-1" d="M677.16,276.85a118.93,118.93,0,0,1,21.75,7.71c3.63,1.7,6.93,3.48,9.9,5.24" transform="translate(-332.73 -146.52)"/><path class="cls-1" d="M688.4,278.33a66.37,66.37,0,0,1,11.59,3.9,64.05,64.05,0,0,1,10.69,6" transform="translate(-332.73 -146.52)"/><path class="cls-1" d="M694.19,278.15a45.88,45.88,0,0,1,8.72,2.86,43.92,43.92,0,0,1,9.79,6" transform="translate(-332.73 -146.52)"/><path class="cls-1" d="M701.63,294.56a31.15,31.15,0,0,1-5.11,11.29,33.92,33.92,0,0,1-6.27,6.62" transform="translate(-332.73 -146.52)"/><path class="cls-1" d="M696.59,298.35a37.27,37.27,0,0,1-7.54,11.46,40.31,40.31,0,0,1-7.89,6.36" transform="translate(-332.73 -146.52)"/><path class="cls-1" d="M691.06,301a20.9,20.9,0,0,1-1.89,4,29.32,29.32,0,0,1-6.86,7.49c-1,.87-3.13,2.51-5.1,4l-.71.54" transform="translate(-332.73 -146.52)"/><path class="cls-1" d="M687.78,301.84a49.24,49.24,0,0,1-11.68,12.45,51.87,51.87,0,0,1-7.06,4.47" transform="translate(-332.73 -146.52)"/><path class="cls-1" d="M681.51,304.46a109.39,109.39,0,0,1-9.78,9.48c-2.36,2-4.68,3.83-6.91,5.45" transform="translate(-332.73 -146.52)"/><line class="cls-1" x1="341.55" y1="160.98" x2="327.3" y2="173.36"/><line class="cls-1" x1="337.6" y1="161.88" x2="324.17" y2="173.18"/><line class="cls-1" x1="332.63" y1="162.72" x2="319.99" y2="173.7"/><line class="cls-1" x1="327.73" y1="163.37" x2="314.24" y2="174.74"/><line class="cls-1" x1="324.21" y1="163.14" x2="311.56" y2="173.63"/><line class="cls-1" x1="319.72" y1="164.23" x2="309.7" y2="172.65"/><line class="cls-1" x1="315.98" y1="164.64" x2="306.81" y2="172.41"/><line class="cls-1" x1="312.49" y1="164.93" x2="303.19" y2="172.42"/><line class="cls-1" x1="308.62" y1="165.37" x2="300.93" y2="171.73"/><line class="cls-1" x1="305.24" y1="165.3" x2="298.45" y2="171.2"/><line class="cls-1" x1="302.02" y1="165.35" x2="296.2" y2="170.78"/><line class="cls-1" x1="299.02" y1="165.53" x2="294.19" y2="170.06"/><line class="cls-1" x1="296.23" y1="165.29" x2="291.28" y2="169.6"/><line class="cls-1" x1="293.03" y1="165.17" x2="288.4" y2="168.31"/><line class="cls-1" x1="290.21" y1="165.01" x2="286.03" y2="167.77"/><line class="cls-1" x1="285.87" y1="164.67" x2="281.49" y2="166.15"/><line class="cls-1" x1="287.09" y1="165.03" x2="284.1" y2="166.96"/><line class="cls-1" x1="281.65" y1="164.22" x2="279.08" y2="165.29"/><line class="cls-1" x1="279.16" y1="163.9" x2="276.32" y2="165.08"/><path class="cls-1" d="M508.39,201a120.56,120.56,0,0,0,37.08,21.94,157.47,157.47,0,0,0,20.67,5.74c7,1.79,14.18,2.64,21.29,3.9V233a72.59,72.59,0,0,1-22.07-.38c-7.31-1.09-14.34-3.74-21.09-6.7a122.37,122.37,0,0,1-19.33-10.57,102.56,102.56,0,0,1-16.83-14Z" transform="translate(-332.73 -146.52)"/><path class="cls-1" d="M517.68,205.3s2,5.45,5.12,7.46" transform="translate(-332.73 -146.52)"/><path class="cls-1" d="M521.72,207.44s3.33,6.23,7.11,8.73" transform="translate(-332.73 -146.52)"/><path class="cls-1" d="M526.82,210.84s3.17,6.1,6.86,8.41" transform="translate(-332.73 -146.52)"/><path class="cls-1" d="M529.79,210.87a25.66,25.66,0,0,0,2.86,4.7,31,31,0,0,0,5.51,5.53" transform="translate(-332.73 -146.52)"/><path class="cls-1" d="M532.73,210.8a32.07,32.07,0,0,0,3,5.06,38.26,38.26,0,0,0,6.35,6.68" transform="translate(-332.73 -146.52)"/><path class="cls-1" d="M537.08,213.55a34,34,0,0,0,3.76,5.52,41,41,0,0,0,5.63,5.47" transform="translate(-332.73 -146.52)"/><path class="cls-1" d="M536.25,207.66a40,40,0,0,0,6.44,10.42,49.64,49.64,0,0,0,8.31,7.75" transform="translate(-332.73 -146.52)"/><path class="cls-1" d="M541.42,210.37a38.6,38.6,0,0,0,5.84,9.8,46.31,46.31,0,0,0,7.51,7.3" transform="translate(-332.73 -146.52)"/><path class="cls-1" d="M545.54,212.4a37.37,37.37,0,0,0,5.6,9.54,44.36,44.36,0,0,0,7.19,7.11" transform="translate(-332.73 -146.52)"/><path class="cls-1" d="M548.2,212.71q2.49,4,5.36,8.19c1.83,2.66,3.67,5.23,5.51,7.68" transform="translate(-332.73 -146.52)"/><path class="cls-1" d="M550.2,212.37c2.07,2.68,4.15,5.55,6.21,8.58q2.82,4.16,5.15,8" transform="translate(-332.73 -146.52)"/><path class="cls-1" d="M553.58,214.17c2.09,2.41,4.23,5.11,6.34,8.08s3.7,5.53,5.15,8" transform="translate(-332.73 -146.52)"/><path class="cls-1" d="M552.17,210.34a87.43,87.43,0,0,1,10.74,12.16,75.51,75.51,0,0,1,5.14,8" transform="translate(-332.73 -146.52)"/><path class="cls-1" d="M556.59,211.72a88.59,88.59,0,0,1,10.74,12.15,77.22,77.22,0,0,1,5.15,8" transform="translate(-332.73 -146.52)"/><path class="cls-1" d="M561.13,212.64A70.8,70.8,0,0,1,570.34,225a62.53,62.53,0,0,1,3.29,6.48" transform="translate(-332.73 -146.52)"/><path class="cls-1" d="M563.47,213a70.72,70.72,0,0,1,9.21,12.35,62.46,62.46,0,0,1,3.32,6.46" transform="translate(-332.73 -146.52)"/><path class="cls-1" d="M566.83,213.82a66.46,66.46,0,0,1,8.79,11.84,57.48,57.48,0,0,1,3.28,6.57c-1.18.61-3.17,1.6-5.32,2.47a20,20,0,0,1-2.61.88c-.88.23-1.65.36-2.21.45" transform="translate(-332.73 -146.52)"/><path class="cls-1" d="M569.41,213.79a70.72,70.72,0,0,1,9.21,12.35,62.38,62.38,0,0,1,3.29,6.47" transform="translate(-332.73 -146.52)"/><path class="cls-1" d="M575.48,218.94a39.28,39.28,0,0,1,5,6.48,33.93,33.93,0,0,1,3.37,7.16" transform="translate(-332.73 -146.52)"/><path class="cls-1" d="M579.11,221.13a27.56,27.56,0,0,1,3.81,4.87,22.6,22.6,0,0,1,2.84,6.78" transform="translate(-332.73 -146.52)"/><path class="cls-1" d="M575,232.13a29.86,29.86,0,0,1-9,3.54,34.49,34.49,0,0,1-7.3.78" transform="translate(-332.73 -146.52)"/><path class="cls-1" d="M570,232a36.63,36.63,0,0,1-10.6,2.68,40.9,40.9,0,0,1-8.13,0" transform="translate(-332.73 -146.52)"/><path class="cls-1" d="M565.24,231.12a19.81,19.81,0,0,1-3.24,1.23,30,30,0,0,1-8.11,1H548" transform="translate(-332.73 -146.52)"/><path class="cls-1" d="M562.78,230.25a51.35,51.35,0,0,1-20.28,1" transform="translate(-332.73 -146.52)"/><path class="cls-1" d="M557.59,229.07a108.17,108.17,0,0,1-10.93.82c-2.49.07-4.85,0-7.07,0" transform="translate(-332.73 -146.52)"/><line class="cls-1" x1="218.86" y1="81.21" x2="203.69" y2="81.69"/><line class="cls-1" x1="215.99" y1="80.09" x2="201.87" y2="80.37"/><line class="cls-1" x1="212.51" y1="78.55" x2="199.06" y2="78.98"/><line class="cls-1" x1="209.19" y1="76.95" x2="195.01" y2="77.23"/><line class="cls-1" x1="207.16" y1="75.45" x2="193.95" y2="75.63"/><line class="cls-1" x1="203.85" y1="74.22" x2="193.33" y2="74.42"/><line class="cls-1" x1="201.36" y1="72.95" x2="191.7" y2="73.16"/><line class="cls-1" x1="199.08" y1="71.72" x2="189.49" y2="71.74"/><line class="cls-1" x1="196.49" y1="70.41" x2="188.48" y2="70.51"/><line class="cls-1" x1="194.47" y1="69.04" x2="187.23" y2="69.28"/><line class="cls-1" x1="192.48" y1="67.81" x2="186.08" y2="68.18"/><line class="cls-1" x1="190.55" y1="66.71" x2="185.24" y2="67.04"/><line class="cls-1" x1="188.98" y1="65.5" x2="183.7" y2="65.67"/><line class="cls-1" x1="187.09" y1="64.18" x2="182.63" y2="63.9"/><line class="cls-1" x1="185.46" y1="62.99" x2="181.46" y2="62.7"/><line class="cls-1" x1="182.99" y1="61.12" x2="179.55" y2="60.12"/><line class="cls-1" x1="183.55" y1="61.78" x2="180.71" y2="61.54"/><line class="cls-1" x1="180.65" y1="59.24" x2="178.53" y2="58.75"/><line class="cls-1" x1="179.3" y1="58.09" x2="176.95" y2="57.56"/><path class="cls-1" d="M588,148c33.33,7.61,72.3,29.65,88.15,61a93.1,93.1,0,0,1,4.06,9c.6,1.78,1.32,3.81,1.86,5.6l-.37.15c-12.29-22.75-29.63-42.51-51.5-56.26a165.32,165.32,0,0,0-42.3-19.14l.1-.35" transform="translate(-332.73 -146.52)"/><path class="cls-1" d="M599.81,156.85s10.19-1.38,15.19,1" transform="translate(-332.73 -146.52)"/><path class="cls-1" d="M605.48,160.33s12.17-.31,18.34,2.59" transform="translate(-332.73 -146.52)"/><path class="cls-1" d="M613.81,164.22s11.89-.41,17.68,2.51" transform="translate(-332.73 -146.52)"/><path class="cls-1" d="M615.4,167.88a52.27,52.27,0,0,1,9.36.2A50.65,50.65,0,0,1,636.89,171" transform="translate(-332.73 -146.52)"/><path class="cls-1" d="M616.8,171.58a64.21,64.21,0,0,1,24.56,3.28" transform="translate(-332.73 -146.52)"/><path class="cls-1" d="M623.65,175a65.73,65.73,0,0,1,11.21.74A64.27,64.27,0,0,1,647,178.8" transform="translate(-332.73 -146.52)"/><path class="cls-1" d="M613.32,178.17a80.71,80.71,0,0,1,20.83.55,79.9,79.9,0,0,1,17.31,4.76" transform="translate(-332.73 -146.52)"/><path class="cls-1" d="M620.54,182.64a77.91,77.91,0,0,1,19.48.25A75.42,75.42,0,0,1,656.16,187" transform="translate(-332.73 -146.52)"/><path class="cls-1" d="M626.08,186.29a77.28,77.28,0,0,1,18.92.14,73.26,73.26,0,0,1,15.64,3.84" transform="translate(-332.73 -146.52)"/><path class="cls-1" d="M628,189.36q8,.24,16.52.81,8.15.56,15.75,1.35" transform="translate(-332.73 -146.52)"/><path class="cls-1" d="M628.42,192.08c5.58.65,11.46,1.19,17.62,1.58,5.62.36,11,.56,16.18.64" transform="translate(-332.73 -146.52)"/><path class="cls-1" d="M633.19,195c5.13.87,10.76,1.61,16.85,2.1,5.77.47,11.19.65,16.17.64" transform="translate(-332.73 -146.52)"/><path class="cls-1" d="M626,196a155,155,0,0,0,26,4.63,153.35,153.35,0,0,0,16.18.64" transform="translate(-332.73 -146.52)"/><path class="cls-1" d="M630.62,200.46a155.27,155.27,0,0,0,26,4.64,158.91,158.91,0,0,0,16.18.64" transform="translate(-332.73 -146.52)"/><path class="cls-1" d="M634.5,205.42A133.2,133.2,0,0,0,660,208c4.48,0,8.69-.18,12.57-.53" transform="translate(-332.73 -146.52)"/><path class="cls-1" d="M636.29,208.06a131.66,131.66,0,0,0,25.5,2.62c4.48,0,8.69-.19,12.57-.54" transform="translate(-332.73 -146.52)"/><path class="cls-1" d="M638.7,211.24a132.26,132.26,0,0,0,25.49,2.62c4.49,0,8.69-.19,12.58-.54a33.83,33.83,0,0,0,2.43-11,33.31,33.31,0,0,0-.76-8.85" transform="translate(-332.73 -146.52)"/><path class="cls-1" d="M640.7,214.85a131.48,131.48,0,0,0,25.49,2.62c4.48,0,8.69-.19,12.57-.54" transform="translate(-332.73 -146.52)"/><path class="cls-1" d="M652.47,218.71a74.7,74.7,0,0,0,27.29.67" transform="translate(-332.73 -146.52)"/><path class="cls-1" d="M658,221.63a49.78,49.78,0,0,0,10.1,1.28A51.36,51.36,0,0,0,681,221.6" transform="translate(-332.73 -146.52)"/><path class="cls-1" d="M679.9,218.26a33,33,0,0,0,1.66-17.07" transform="translate(-332.73 -146.52)"/><path class="cls-1" d="M674.41,208.77a34.45,34.45,0,0,0-1.13-23.28" transform="translate(-332.73 -146.52)"/><path class="cls-1" d="M671.6,202.6a39.51,39.51,0,0,0-1-15,41,41,0,0,0-4.15-10.09" transform="translate(-332.73 -146.52)"/><path class="cls-1" d="M667.68,197.35a23.76,23.76,0,0,0,.39-4.91,30,30,0,0,0-2.52-10.74c-.53-1.36-1.65-4-2.74-6.42l-.39-.88" transform="translate(-332.73 -146.52)"/><path class="cls-1" d="M665,194.93a51,51,0,0,0-4.45-18,52.13,52.13,0,0,0-4.4-7.81" transform="translate(-332.73 -146.52)"/><path class="cls-1" d="M660.3,189.34a110.27,110.27,0,0,0-4.25-14.12c-1.18-3.13-2.43-6-3.7-8.72" transform="translate(-332.73 -146.52)"/><line class="cls-1" x1="322.22" y1="36.35" x2="315.22" y2="17.22"/><line class="cls-1" x1="318.87" y1="33.58" x2="312.06" y2="15.92"/><line class="cls-1" x1="314.49" y1="30.38" x2="308.29" y2="13.41"/><line class="cls-1" x1="310.07" y1="27.41" x2="303.25" y2="9.65"/><line class="cls-1" x1="306.52" y1="25.97" x2="300.02" y2="9.48"/><line class="cls-1" x1="302.75" y1="22.75" x2="297.67" y2="9.58"/><line class="cls-1" x1="299.33" y1="20.57" x2="294.71" y2="8.45"/><line class="cls-1" x1="296.09" y1="18.62" x2="291.19" y2="6.73"/><line class="cls-1" x1="292.56" y1="16.34" x2="288.6" y2="6.35"/><line class="cls-1" x1="289.22" y1="14.81" x2="285.89" y2="5.69"/><line class="cls-1" x1="286.12" y1="13.23" x2="283.46" y2="5.05"/><line class="cls-1" x1="283.28" y1="11.63" x2="281.1" y2="4.82"/><line class="cls-1" x1="280.44" y1="10.54" x2="278.01" y2="3.89"/><line class="cls-1" x1="277.25" y1="9.14" x2="274.49" y2="3.81"/><line class="cls-1" x1="274.41" y1="7.97" x2="271.87" y2="3.23"/><line class="cls-1" x1="269.99" y1="6.25" x2="266.55" y2="2.69"/><line class="cls-1" x1="271.38" y1="6.47" x2="269.54" y2="3.13"/><line class="cls-1" x1="265.63" y1="4.69" x2="263.72" y2="2.41"/><line class="cls-1" x1="263.01" y1="3.83" x2="260.91" y2="1.3"/><path class="cls-1" d="M709.31,194.11c27.91,13.44,55.54,42.16,63.41,72.6a85.12,85.12,0,0,1,2.6,13.9l-.39.08c-2-5.49-3.93-11-6.19-16.3-5.1-11.56-10.89-22.87-18.36-33.14a134.35,134.35,0,0,0-41.24-36.77l.17-.37" transform="translate(-332.73 -146.52)"/><path class="cls-1" d="M714.15,204.52a26.66,26.66,0,0,1,15.18,3" transform="translate(-332.73 -146.52)"/><path class="cls-1" d="M717.44,210.13a29.12,29.12,0,0,1,18.3,3.52" transform="translate(-332.73 -146.52)"/><path class="cls-1" d="M720,214.76a44.88,44.88,0,0,1,8.9.28,46.45,46.45,0,0,1,12.4,3.38" transform="translate(-332.73 -146.52)"/><path class="cls-1" d="M722.37,218.36a68,68,0,0,1,22.78,4.93" transform="translate(-332.73 -146.52)"/><path class="cls-1" d="M724.06,221.94a63,63,0,0,1,24.21,5.74" transform="translate(-332.73 -146.52)"/><path class="cls-1" d="M725.55,225.64a52.18,52.18,0,0,1,26.68,6.65" transform="translate(-332.73 -146.52)"/><path class="cls-1" d="M726.73,228.73a51.45,51.45,0,0,1,28.56,8.73" transform="translate(-332.73 -146.52)"/><path class="cls-1" d="M728.46,232a62.25,62.25,0,0,1,30.15,9.53" transform="translate(-332.73 -146.52)"/><path class="cls-1" d="M730,234.87a70,70,0,0,1,31.76,10.46" transform="translate(-332.73 -146.52)"/><path class="cls-1" d="M731.53,237.54c5.27,1.22,10.83,2.7,16.64,4.48,4.64,1.42,9,2.92,13.18,4.46" transform="translate(-332.73 -146.52)"/><path class="cls-1" d="M732.67,239.54a100.78,100.78,0,0,0,16.62,6.78,103.9,103.9,0,0,0,13.35,3.14" transform="translate(-332.73 -146.52)"/><path class="cls-1" d="M734.17,242.12a60.45,60.45,0,0,0,31.24,11.21" transform="translate(-332.73 -146.52)"/><path class="cls-1" d="M735.75,245.27A53.63,53.63,0,0,0,766.59,257" transform="translate(-332.73 -146.52)"/><path class="cls-1" d="M738.28,249.54A49.89,49.89,0,0,0,769.74,262" transform="translate(-332.73 -146.52)"/><path class="cls-1" d="M742.09,254.54a35,35,0,0,0,27.33,9.16" transform="translate(-332.73 -146.52)"/><path class="cls-1" d="M744.6,258.72a31.65,31.65,0,0,0,15.08,7.63,30.89,30.89,0,0,0,10.89.16" transform="translate(-332.73 -146.52)"/><path class="cls-1" d="M747.26,262a27.76,27.76,0,0,0,14.55,8,27.19,27.19,0,0,0,10.33,0,30.33,30.33,0,0,0,3.28-6.06,32,32,0,0,0,1.73-17.09" transform="translate(-332.73 -146.52)"/><path class="cls-1" d="M750.64,265.64a25.21,25.21,0,0,0,22.7,8.06" transform="translate(-332.73 -146.52)"/><path class="cls-1" d="M755.34,270.51a26.7,26.7,0,0,0,8.11,5.28,15.13,15.13,0,0,0,3.72,1.09,14,14,0,0,0,6.68-.67" transform="translate(-332.73 -146.52)"/><path class="cls-1" d="M761.28,275.22a18.79,18.79,0,0,0,5.42,3.25,10.66,10.66,0,0,0,3.85.89,9.81,9.81,0,0,0,4.07-.82" transform="translate(-332.73 -146.52)"/><path class="cls-1" d="M774.11,275.15a25,25,0,0,0,5.22-8.45,28.23,28.23,0,0,0,1.58-9.42v-1" transform="translate(-332.73 -146.52)"/><path class="cls-1" d="M770.74,265.19a40.1,40.1,0,0,0,2.68-8.84,38.11,38.11,0,0,0-.89-17.44c-.28-.9-.54-1.63-.72-2.11" transform="translate(-332.73 -146.52)"/><path class="cls-1" d="M769.14,258.81a48.37,48.37,0,0,0-1.58-25" transform="translate(-332.73 -146.52)"/><path class="cls-1" d="M766.59,253.18a26.77,26.77,0,0,0,.78-4.71,37.09,37.09,0,0,0-.93-10.76c-.29-1.39-.91-4.1-1.52-6.6-.1-.38-.17-.7-.23-.91" transform="translate(-332.73 -146.52)"/><path class="cls-1" d="M764.7,250.45a62,62,0,0,0-1.74-18,60.25,60.25,0,0,0-2.67-8.19" transform="translate(-332.73 -146.52)"/><path class="cls-1" d="M761.61,244.38a134.54,134.54,0,0,0-2-14.27c-.61-3.2-1.31-6.19-2-9" transform="translate(-332.73 -146.52)"/><line class="cls-1" x1="425.33" y1="90.84" x2="421.72" y2="71.33"/><line class="cls-1" x1="422.99" y1="87.69" x2="419.39" y2="69.62"/><line class="cls-1" x1="419.89" y1="83.97" x2="416.69" y2="66.66"/><line class="cls-1" x1="416.74" y1="80.47" x2="413.12" y2="62.31"/><line class="cls-1" x1="414.1" y1="78.57" x2="410.63" y2="61.69"/><line class="cls-1" x1="411.48" y1="74.92" x2="408.78" y2="61.46"/><line class="cls-1" x1="409.03" y1="72.33" x2="406.59" y2="59.94"/><line class="cls-1" x1="406.69" y1="69.98" x2="404.02" y2="57.77"/><line class="cls-1" x1="404.16" y1="67.28" x2="402.04" y2="57.04"/><line class="cls-1" x1="401.71" y1="65.33" x2="399.98" y2="56.02"/><line class="cls-1" x1="399.44" y1="63.36" x2="398.16" y2="55.06"/><line class="cls-1" x1="397.39" y1="61.41" x2="396.34" y2="54.5"/><line class="cls-1" x1="395.28" y1="59.96" x2="394.02" y2="53.17"/><line class="cls-1" x1="392.93" y1="58.15" x2="391.29" y2="52.6"/><line class="cls-1" x1="390.83" y1="56.61" x2="389.31" y2="51.67"/><line class="cls-1" x1="387.55" y1="54.33" x2="385.21" y2="50.4"/><line class="cls-1" x1="388.62" y1="54.74" x2="387.5" y2="51.24"/><line class="cls-1" x1="384.3" y1="52.21" x2="383.04" y2="49.72"/><line class="cls-1" x1="382.35" y1="51.01" x2="380.96" y2="48.26"/><path class="cls-1" d="M543.55,339.46c5.12-17.22,15.07-32.77,27.37-45.79a95.49,95.49,0,0,1,39-26c2.12-.74,4.29-1.36,6.45-1.94l.15.37c-4.86,2.7-9.7,5.34-14.45,8.23A223.49,223.49,0,0,0,578,291.51a122.14,122.14,0,0,0-21.84,24.61,107,107,0,0,0-12.28,23.46l-.39-.11" transform="translate(-332.73 -146.52)"/><path class="cls-1" d="M552.89,333.35a21.79,21.79,0,0,1,.13-14" transform="translate(-332.73 -146.52)"/><path class="cls-1" d="M557.8,329.44a23.77,23.77,0,0,1,.06-16.82" transform="translate(-332.73 -146.52)"/><path class="cls-1" d="M561.87,326.32a38.18,38.18,0,0,1-.38-19.51" transform="translate(-332.73 -146.52)"/><path class="cls-1" d="M565,323.62a55.18,55.18,0,0,1,.6-21" transform="translate(-332.73 -146.52)"/><path class="cls-1" d="M568.19,321.49a51.2,51.2,0,0,1,1.15-22.43" transform="translate(-332.73 -146.52)"/><path class="cls-1" d="M571.56,319.52a42.6,42.6,0,0,1-.94-13.92,43.59,43.59,0,0,1,2.51-10.87" transform="translate(-332.73 -146.52)"/><path class="cls-1" d="M574.38,317.93a42,42,0,0,1-.49-14.18,43.42,43.42,0,0,1,3.76-12.65" transform="translate(-332.73 -146.52)"/><path class="cls-1" d="M577.27,315.81a50.27,50.27,0,0,1-.18-14.18A51.85,51.85,0,0,1,581,287.44" transform="translate(-332.73 -146.52)"/><path class="cls-1" d="M579.81,313.92a57.79,57.79,0,0,1,.75-18.46A59.88,59.88,0,0,1,584.19,284" transform="translate(-332.73 -146.52)"/><path class="cls-1" d="M582.17,312.12c.22-4.88.63-10.07,1.3-15.52q.81-6.54,1.93-12.46" transform="translate(-332.73 -146.52)"/><path class="cls-1" d="M583.92,310.76a83.5,83.5,0,0,0,3.57-15.92,82.35,82.35,0,0,0,.6-12.36" transform="translate(-332.73 -146.52)"/><path class="cls-1" d="M586.18,309A51.28,51.28,0,0,0,591.33,293a49.1,49.1,0,0,0,.06-13.59" transform="translate(-332.73 -146.52)"/><path class="cls-1" d="M589,307a45.64,45.64,0,0,0,5.81-16.21,44,44,0,0,0,0-13.16" transform="translate(-332.73 -146.52)"/><path class="cls-1" d="M592.73,304a42.83,42.83,0,0,0,6.32-15.63,40.62,40.62,0,0,0,.09-14.42" transform="translate(-332.73 -146.52)"/><path class="cls-1" d="M596.93,299.77a30.17,30.17,0,0,0,5.26-14.25A28.85,28.85,0,0,0,600.85,274" transform="translate(-332.73 -146.52)"/><path class="cls-1" d="M600.58,296.8a26.79,26.79,0,0,0,4.7-14.69,25.45,25.45,0,0,0-1.87-9.67" transform="translate(-332.73 -146.52)"/><path class="cls-1" d="M604.12,294.23a25.63,25.63,0,0,0,4.34-14.65,25,25,0,0,0-2-9.14c-.71-.27-1.47-.55-2.29-.8a33.36,33.36,0,0,0-4.29-1,27.62,27.62,0,0,0-9.11.47" transform="translate(-332.73 -146.52)"/><path class="cls-1" d="M609,289.55a31.34,31.34,0,0,0,.94-20.84" transform="translate(-332.73 -146.52)"/><path class="cls-1" d="M613.19,283.88a36.21,36.21,0,0,0,1.09-7.47A16.71,16.71,0,0,0,614,272a14.68,14.68,0,0,0-1.64-4.19" transform="translate(-332.73 -146.52)"/><path class="cls-1" d="M616.55,279a13.48,13.48,0,0,0,.66-5.2,13.14,13.14,0,0,0-1-4.06,12.41,12.41,0,0,0-1.77-3" transform="translate(-332.73 -146.52)"/><path class="cls-1" d="M611.26,267.78a22.38,22.38,0,0,0-6.9-1.83,24.22,24.22,0,0,0-3.07-.08,25.36,25.36,0,0,0-3.69.38" transform="translate(-332.73 -146.52)"/><path class="cls-1" d="M602.07,272.52a48.88,48.88,0,0,0-9.2-.81,30.74,30.74,0,0,0-7.22.74,25.25,25.25,0,0,0-4.14,1.41" transform="translate(-332.73 -146.52)"/><path class="cls-1" d="M596.09,275.06a53.74,53.74,0,0,0-14.6,2,51.92,51.92,0,0,0-9.77,3.84" transform="translate(-332.73 -146.52)"/><path class="cls-1" d="M591,278.32a31.82,31.82,0,0,0-4.78.14,40.45,40.45,0,0,0-10.42,2.73c-1.32.5-3.87,1.53-6.22,2.51l-.85.36" transform="translate(-332.73 -146.52)"/><path class="cls-1" d="M588.68,280.47a68.1,68.1,0,0,0-17.44,4.74,62.92,62.92,0,0,0-7.56,3.81" transform="translate(-332.73 -146.52)"/><path class="cls-1" d="M583.28,284.28c-4.19,1.08-8.8,2.47-13.68,4.26-3,1.11-5.86,2.25-8.46,3.4" transform="translate(-332.73 -146.52)"/><line class="cls-1" x1="244.31" y1="142.14" x2="225.76" y2="148.79"/><line class="cls-1" x1="241.64" y1="144.77" x2="224.52" y2="151.16"/><path class="cls-1" d="M571.28,294.7,556.39,300" transform="translate(-332.73 -146.52)"/><path class="cls-1" d="M568.42,298.11l-12.74,4.75" transform="translate(-332.73 -146.52)"/><path class="cls-1" d="M567.05,300.77l-14.23,5.41" transform="translate(-332.73 -146.52)"/><line class="cls-1" x1="231.21" y1="157.22" x2="218.46" y2="161.99"/><line class="cls-1" x1="229.12" y1="159.85" x2="217.37" y2="164.2"/><line class="cls-1" x1="227.24" y1="162.33" x2="215.72" y2="166.86"/><line class="cls-1" x1="225.06" y1="165.05" x2="215.37" y2="168.74"/><line class="cls-1" x1="223.59" y1="167.57" x2="214.75" y2="170.74"/><line class="cls-1" x1="222.08" y1="169.92" x2="214.14" y2="172.53"/><line class="cls-1" x1="220.54" y1="172.09" x2="213.93" y2="174.24"/><line class="cls-1" x1="219.5" y1="174.21" x2="213.05" y2="176.53"/><line class="cls-1" x1="218.17" y1="176.61" x2="213.01" y2="179.04"/><line class="cls-1" x1="217.04" y1="178.74" x2="212.45" y2="180.96"/><line class="cls-1" x1="215.4" y1="182.05" x2="211.97" y2="184.81"/><line class="cls-1" x1="215.6" y1="181.03" x2="212.37" y2="182.64"/><line class="cls-1" x1="213.92" y1="185.3" x2="211.71" y2="186.86"/><line class="cls-1" x1="213.1" y1="187.24" x2="210.65" y2="188.96"/></g></g></svg>