<svg xmlns="http://www.w3.org/2000/svg" viewBox="0 0 187.42 187.43"><defs><style>.cls-1{fill:#231f20;}</style></defs><title>Ресурс 1</title><g id="Слой_2" data-name="Слой 2"><g id="Layer_1" data-name="Layer 1"><path class="cls-1" d="M169,106.15c.19-.92.26-1.81.38-2.66s.23-1.65.28-2.41c.11-1.51.24-2.84.27-3.93.07-2.19.09-3.44.09-3.44s0-1.25-.09-3.43c0-1.1-.16-2.42-.27-3.93,0-.77-.18-1.57-.28-2.41s-.19-1.74-.38-2.66a73.79,73.79,0,0,0-3.12-12.38,76.29,76.29,0,0,0-14.59-25.23,80.5,80.5,0,0,0-9.16-8.93c-1.48-1.15-2.8-2.24-4.07-3.09l-1.73-1.24-1.53-1c-.92-.59-1.63-1.06-2.15-1.34l-.78-.44-.78-.45-.93-.54L128.84,26c-1-.49-2.15-1.12-3.55-1.72-.69-.31-1.42-.67-2.21-1l-2.5-1a78.28,78.28,0,0,0-12.29-3.47,76.09,76.09,0,0,0-29.16,0,78.59,78.59,0,0,0-12.29,3.47l-2.5,1c-.79.32-1.51.68-2.21,1-1.4.6-2.57,1.23-3.54,1.72l-1.3.67-.93.54-.78.45-.78.44c-.51.28-1.23.75-2.15,1.34l-1.52,1-1.74,1.24c-1.26.85-2.59,1.94-4.07,3.09a79.65,79.65,0,0,0-9.15,8.93A75.83,75.83,0,0,0,21.58,68.9a72.93,72.93,0,0,0-3.13,12.38c-.19.92-.26,1.81-.38,2.66s-.23,1.64-.28,2.41c-.1,1.51-.25,2.83-.28,3.93-.05,2.18-.08,3.43-.08,3.43s0,1.25.08,3.44c0,1.09.18,2.42.28,3.93.05.76.18,1.56.28,2.41s.19,1.74.38,2.66a73.16,73.16,0,0,0,3.13,12.38,75.83,75.83,0,0,0,14.59,25.23,79.51,79.51,0,0,0,9.15,8.92c1.48,1.15,2.81,2.25,4.07,3.1L51.13,157l1.52,1c.92.59,1.64,1.06,2.15,1.34l.78.44.78.45.93.54,1.3.66c1,.5,2.14,1.13,3.54,1.73.7.3,1.42.66,2.21,1l2.5,1a78.59,78.59,0,0,0,12.29,3.47,76.09,76.09,0,0,0,29.16,0,78.28,78.28,0,0,0,12.29-3.47l2.5-1c.79-.32,1.52-.68,2.21-1,1.4-.6,2.57-1.23,3.55-1.73l1.29-.66.93-.54.78-.45.78-.44c.52-.28,1.23-.75,2.15-1.34l1.53-1,1.73-1.23c1.27-.85,2.59-1.95,4.07-3.1a80.35,80.35,0,0,0,9.16-8.92,76.29,76.29,0,0,0,14.59-25.23A74,74,0,0,0,169,106.15m-11.82,24.18A73.13,73.13,0,0,1,149,141.77a77.59,77.59,0,0,1-8.79,8.58c-1.42,1.1-2.69,2.15-3.91,3l-1.67,1.18-1.46.94c-.88.57-1.57,1-2.07,1.28l-.75.43-.74.43-.9.52-1.24.64c-.94.47-2.06,1.08-3.4,1.66-.67.29-1.37.63-2.13.94l-2.4.94a75.57,75.57,0,0,1-11.79,3.34,73.37,73.37,0,0,1-28,0,75.57,75.57,0,0,1-11.79-3.34l-2.4-.94c-.76-.31-1.46-.65-2.13-.94-1.34-.58-2.46-1.19-3.39-1.66l-1.25-.64-.9-.52-.74-.43-.75-.43c-.5-.26-1.19-.71-2.07-1.28l-1.46-.94-1.67-1.18c-1.21-.82-2.48-1.87-3.91-3a77.59,77.59,0,0,1-8.79-8.58,73,73,0,0,1-14-24.22,70.41,70.41,0,0,1-3-11.89c-.19-.88-.25-1.74-.37-2.56s-.22-1.58-.27-2.31c-.09-1.45-.23-2.72-.26-3.77-.06-2.1-.09-3.31-.09-3.31s0-1.2.09-3.3c0-1,.17-2.32.26-3.78.05-.73.18-1.49.27-2.31s.18-1.67.37-2.55a70.41,70.41,0,0,1,3-11.89,73.21,73.21,0,0,1,14-24.23,77.44,77.44,0,0,1,8.79-8.57c1.43-1.1,2.7-2.16,3.91-3l1.67-1.19L54.28,32c.88-.57,1.57-1,2.07-1.29l.75-.43.74-.43.9-.52L60,28.69c.93-.48,2-1.09,3.39-1.66.67-.29,1.37-.64,2.13-.94l2.4-.95A74.53,74.53,0,0,1,79.7,21.81a73.37,73.37,0,0,1,28,0,74.53,74.53,0,0,1,11.79,3.33l2.4.95c.76.3,1.46.65,2.13.94,1.34.57,2.46,1.18,3.4,1.66l1.24.63.9.52.74.43.75.43c.5.26,1.19.72,2.07,1.29l1.46.93,1.67,1.19c1.22.81,2.49,1.87,3.91,3A77.44,77.44,0,0,1,149,45.65a73.46,73.46,0,0,1,14,24.23,70.31,70.31,0,0,1,3,11.89c.19.88.26,1.74.37,2.55s.22,1.58.27,2.31c.1,1.46.23,2.73.27,3.78.05,2.1.08,3.3.08,3.3s0,1.21-.08,3.31c0,1-.17,2.32-.27,3.77-.05.73-.18,1.5-.27,2.31s-.18,1.68-.37,2.56a70.31,70.31,0,0,1-3,11.89,73.15,73.15,0,0,1-5.84,12.78"/><path class="cls-1" d="M180.27,104.67c-.7-.39-1.83-.18-3.47,1.08,1.64-1.26,2.09-2.37,1.91-3.14a2.33,2.33,0,0,0-3.93-.41c-.36.69-.19,1.77,1.08,3.42-1.27-1.65-2.33-2.06-3.09-1.9a2.21,2.21,0,0,0-.55,3.74c.67.38,1.8.3,3.51-.9-1.71,1.2-2.19,2.18-2,2.94A2.08,2.08,0,0,0,175.4,111a2,2,0,0,0,2.16-.69c.4-.69.3-1.88-.89-3.56,1.19,1.68,2.21,2.21,3,2.05a2.45,2.45,0,0,0,.61-4.09"/><path class="cls-1" d="M177.68,117.45c-.63-.48-1.78-.45-3.59.56,1.81-1,2.42-2,2.36-2.82a2.33,2.33,0,0,0-3.83-1c-.46.63-.45,1.71.56,3.54-1-1.83-2-2.38-2.77-2.33a1.89,1.89,0,0,0-1.57,1.49,1.93,1.93,0,0,0,.46,2.12c.61.47,1.74.57,3.61-.37-1.87.94-2.49,1.83-2.47,2.6a2.07,2.07,0,0,0,1.48,1.7,2,2,0,0,0,2.24-.36c.5-.62.58-1.81-.34-3.65.92,1.84,1.85,2.51,2.64,2.47a2.11,2.11,0,0,0,1.7-1.64,2.14,2.14,0,0,0-.48-2.31"/><path class="cls-1" d="M169.58,129.72c1.93-.72,2.69-1.66,2.74-2.44a2,2,0,0,0-1.39-1.8,2.08,2.08,0,0,0-2.24.24c-.55.55-.7,1.63,0,3.58-.72-2-1.61-2.65-2.38-2.72a2.23,2.23,0,0,0-1.65,3.4c.54.57,1.64.83,3.62.18-2,.65-2.73,1.44-2.82,2.21a2.33,2.33,0,0,0,3.49,1.88c.57-.54.83-1.71.19-3.67.64,2,1.46,2.77,2.24,2.85a2.44,2.44,0,0,0,1.8-3.73c-.55-.57-1.69-.7-3.62,0"/><path class="cls-1" d="M163.36,140.62c2-.43,2.9-1.24,3.07-2a2,2,0,0,0-1.11-2,2.07,2.07,0,0,0-2.26-.1c-.62.46-.92,1.51-.49,3.56-.43-2.05-1.21-2.88-2-3.06a1.94,1.94,0,0,0-2,1,1.9,1.9,0,0,0-.18,2.16c.44.64,1.49,1.06,3.54.71-2.05.35-2.89,1-3.11,1.77a2.32,2.32,0,0,0,3.16,2.37c.67-.43,1.08-1.56.74-3.6.34,2,1,3,1.8,3.16a2.15,2.15,0,0,0,2.11-1.07,2.1,2.1,0,0,0,.22-2.35c-.45-.64-1.56-.95-3.58-.52"/><path class="cls-1" d="M155.58,150.46c8.37-.66-1.34-8.82-.7-.64-.1-2.07-.77-3-1.48-3.31a2,2,0,0,0-2.08.66,1.94,1.94,0,0,0-.5,2.12c.35.69,1.33,1.27,3.4,1.21-2.08.05-3,.61-3.34,1.29a2,2,0,0,0,.59,2.17,2,2,0,0,0,2.18.65c.76-.31,1.31-1.38,1.27-3.45,0,2.08.6,3.09,1.32,3.39a2.11,2.11,0,0,0,2.23-.75,2,2,0,0,0,.58-2.28c-.36-.71-1.39-1.16-3.47-1.06"/><path class="cls-1" d="M147.35,155.06c-.74.25-1.29,1.21-1.52,3.24.23-2-.32-3.09-1-3.47a2,2,0,0,0-2.15.33,1.93,1.93,0,0,0-.8,2c.24.74,1.12,1.45,3.17,1.7-2.05-.24-3.06.15-3.5.78a2,2,0,0,0,.27,2.23,2,2,0,0,0,2.06,1c.78-.19,1.51-1.15,1.76-3.22-.26,2.07.14,3.16.81,3.56a2.11,2.11,0,0,0,2.31-.42,2.05,2.05,0,0,0,.93-2.16c-.27-.77-1.2-1.34-3.29-1.57,2.09.23,3.12-.34,3.52-1a2,2,0,0,0-.47-2.2,2.05,2.05,0,0,0-2.13-.77"/><path class="cls-1" d="M137.61,162.38c-.76.14-1.46,1-2,3,.53-2,.17-3.09-.43-3.57a2,2,0,0,0-2.18,0,1.91,1.91,0,0,0-1.09,1.89c.13.77.89,1.6,2.87,2.15a6.51,6.51,0,0,0-2.32-.29,1.8,1.8,0,0,0-1.25.53,2.07,2.07,0,0,0-.07,2.26,2,2,0,0,0,1.9,1.25,1.92,1.92,0,0,0,1.2-.73,5.89,5.89,0,0,0,1-2.19c-.56,2-.33,3.15.27,3.65a2.49,2.49,0,0,0,3.59-2.08c-.14-.78-1-1.51-3-2,2,.55,3.16.15,3.64-.48a2,2,0,0,0-.14-2.26,2.07,2.07,0,0,0-2-1.06"/><path class="cls-1" d="M126.89,168.16c-.77.05-1.59.77-2.41,2.64,3-7.49-8.2-3.07-.89.36-1.87-.82-3-.8-3.57-.31a2.06,2.06,0,0,0-.4,2.23,2,2,0,0,0,1.68,1.52c.8,0,1.8-.62,2.64-2.55-3.62,7.72,8.79,2.84.89-.36,1.93.84,3.1.64,3.67.08a2,2,0,0,0,.2-2.26,2.06,2.06,0,0,0-1.81-1.35"/><path class="cls-1" d="M115.43,172.27a1.82,1.82,0,0,0-1.27.46,6.59,6.59,0,0,0-1.52,1.79c4.12-7-7.64-4.27-.92.22-1.73-1.08-2.83-1.24-3.49-.84a2.08,2.08,0,0,0-.73,2.14,2,2,0,0,0,1.43,1.76c.79.13,1.87-.34,3-2.13-4.74,7.09,8.26,4.13.93-.21a6.33,6.33,0,0,0,2.24.92,1.74,1.74,0,0,0,1.91-2.5,2.06,2.06,0,0,0-1.58-1.61"/><path class="cls-1" d="M103.48,174.62a1.74,1.74,0,0,0-1.32.27,6.17,6.17,0,0,0-1.77,1.54c5.11-6.27-6.93-5.36-1,.07-1.55-1.32-2.61-1.64-3.32-1.34a2.06,2.06,0,0,0-1.05,2,2,2,0,0,0,1.16,2c.76.26,1.9-.05,3.28-1.65-5.74,6.31,7.55,5.3.95-.08a5.87,5.87,0,0,0,2.08,1.24,1.94,1.94,0,0,0,1.41-.07,2,2,0,0,0,.85-2.11,2,2,0,0,0-1.32-1.82"/><path class="cls-1" d="M91.31,175.16c-.72-.3-1.78,0-3.33,1.34,6-5.43-6.06-6.34-1-.07a6.16,6.16,0,0,0-1.76-1.54,1.75,1.75,0,0,0-1.32-.27,2,2,0,0,0-1.33,1.82,2,2,0,0,0,.86,2.11,1.91,1.91,0,0,0,1.4.07A5.87,5.87,0,0,0,87,177.38c-6.6,5.38,6.69,6.39,1,.08,1.37,1.6,2.52,1.91,3.27,1.65a2,2,0,0,0,1.16-2,2.07,2.07,0,0,0-1-2"/><path class="cls-1" d="M79.19,173.9c-.66-.4-1.76-.24-3.49.84,6.72-4.49-5-7.17-.92-.21a6.29,6.29,0,0,0-1.52-1.79,1.8,1.8,0,0,0-1.27-.47,2.06,2.06,0,0,0-1.58,1.61,1.74,1.74,0,0,0,1.91,2.5,6.19,6.19,0,0,0,2.24-.92c-7.33,4.34,5.67,7.3.94.21,1.12,1.8,2.21,2.26,3,2.13A2,2,0,0,0,79.92,176a2.06,2.06,0,0,0-.73-2.14"/><path class="cls-1" d="M63.83,171.16c7.32-3.43-3.91-7.85-.89-.36-.81-1.87-1.64-2.59-2.41-2.64a2.06,2.06,0,0,0-1.81,1.35,2,2,0,0,0,.2,2.26c.57.56,1.74.76,3.67-.08-7.9,3.2,4.51,8.08.9.36.84,1.93,1.84,2.56,2.63,2.55a2,2,0,0,0,1.68-1.52,2.06,2.06,0,0,0-.4-2.23c-.59-.49-1.7-.51-3.57.31"/><path class="cls-1" d="M55,165.54a6.61,6.61,0,0,0-2.34.29c2-.55,2.75-1.38,2.89-2.15a2.19,2.19,0,0,0-3.28-1.89c-.6.48-1,1.59-.43,3.57-.53-2-1.23-2.84-2-3a2,2,0,0,0-2,1.06,2,2,0,0,0-.14,2.26c.49.63,1.6,1,3.64.48-2,.54-2.89,1.27-3,2a2.08,2.08,0,0,0,1.23,2,2.12,2.12,0,0,0,2.35.08c.6-.5.83-1.64.27-3.65a5.89,5.89,0,0,0,1,2.19,1.92,1.92,0,0,0,1.21.73,2,2,0,0,0,1.89-1.25,2.07,2.07,0,0,0-.07-2.26,1.79,1.79,0,0,0-1.24-.53"/><path class="cls-1" d="M42.34,158.89c2.06-.25,2.93-1,3.17-1.7a1.92,1.92,0,0,0-.8-2,2,2,0,0,0-2.15-.33c-.65.38-1.19,1.44-1,3.47-.22-2-.78-3-1.52-3.24a2.06,2.06,0,0,0-2.13.77,2,2,0,0,0-.47,2.2c.39.68,1.43,1.26,3.53,1-2.1.24-3,.8-3.29,1.57a2,2,0,0,0,.92,2.16,2.11,2.11,0,0,0,2.31.42c.67-.41,1.07-1.49.81-3.56.25,2.07,1,3,1.76,3.22a2,2,0,0,0,2.06-1,2,2,0,0,0,.27-2.23c-.44-.63-1.45-1-3.5-.78"/><path class="cls-1" d="M36.6,149.29a1.93,1.93,0,0,0-.5-2.12,2,2,0,0,0-2.08-.65c-.71.28-1.38,1.23-1.47,3.3.63-8.18-9.08,0-.71.64-2.08-.1-3.11.35-3.47,1.06A2.05,2.05,0,0,0,29,153.8a2.11,2.11,0,0,0,2.23.75c.73-.3,1.28-1.31,1.32-3.39,0,2.07.52,3.14,1.27,3.45A2,2,0,0,0,36,154a2,2,0,0,0,.59-2.17c-.35-.68-1.26-1.24-3.34-1.28,2.07.05,3-.53,3.4-1.22"/><path class="cls-1" d="M28.51,142.63c-.21-.74-1.06-1.42-3.11-1.77,2.05.35,3.1-.07,3.55-.71a1.92,1.92,0,0,0-.19-2.16,1.94,1.94,0,0,0-2-1c-.75.18-1.53,1-2,3.06.43-2.05.13-3.1-.49-3.56a2.07,2.07,0,0,0-2.26.1,2,2,0,0,0-1.11,2c.17.77,1.05,1.58,3.07,2-2-.43-3.12-.12-3.58.52a2.08,2.08,0,0,0,.23,2.35,2.13,2.13,0,0,0,2.1,1.07c.77-.19,1.46-1.12,1.81-3.16-.35,2,.06,3.17.73,3.6a2,2,0,0,0,2.26-.32,2,2,0,0,0,.9-2.05"/><path class="cls-1" d="M21.94,132.37c-.09-.77-.84-1.56-2.82-2.21,2,.65,3.09.39,3.62-.18a2.22,2.22,0,0,0-1.64-3.4c-.78.07-1.67.77-2.39,2.72.72-2,.57-3,0-3.58a2.08,2.08,0,0,0-2.24-.24,2,2,0,0,0-1.4,1.8c.05.78.81,1.72,2.75,2.44-1.94-.72-3.08-.59-3.63,0a2.44,2.44,0,0,0,1.8,3.73c.78-.08,1.6-.89,2.24-2.85-.64,2-.38,3.13.2,3.67a2,2,0,0,0,2.28,0,2,2,0,0,0,1.2-1.9"/><path class="cls-1" d="M15.5,122.94a2.05,2.05,0,0,0,1.48-1.7c0-.77-.6-1.66-2.46-2.6,1.86.94,3,.84,3.6.37a1.93,1.93,0,0,0,.46-2.12A1.89,1.89,0,0,0,17,115.4c-.77-.05-1.76.5-2.76,2.33,1-1.83,1-2.91.55-3.54a2,2,0,0,0-2.17-.57A2,2,0,0,0,11,115.19c-.06.78.55,1.81,2.36,2.82-1.81-1-3-1-3.59-.56a2.14,2.14,0,0,0-.48,2.31A2.1,2.1,0,0,0,11,121.4c.79,0,1.72-.63,2.65-2.47-.93,1.84-.85,3-.35,3.65a2,2,0,0,0,2.24.36"/><path class="cls-1" d="M10.75,106.71c-1.19,1.68-1.29,2.87-.89,3.55A2,2,0,0,0,12,111a2.07,2.07,0,0,0,1.72-1.46c.15-.76-.34-1.74-2.05-2.94,1.71,1.2,2.84,1.28,3.52.9a1.93,1.93,0,0,0,.77-2,1.91,1.91,0,0,0-1.33-1.72c-.76-.16-1.82.25-3.08,1.9,1.26-1.65,1.44-2.73,1.07-3.42a2,2,0,0,0-2.05-.89,2,2,0,0,0-1.88,1.3c-.18.77.27,1.88,1.91,3.14-1.64-1.26-2.77-1.47-3.46-1.09a2.16,2.16,0,0,0-.83,2.22,2.12,2.12,0,0,0,1.44,1.88c.77.16,1.79-.37,3-2.05"/><path class="cls-1" d="M9.76,94.19c-1.43,1.49-1.71,2.66-1.41,3.39a2,2,0,0,0,2,1,2.09,2.09,0,0,0,1.92-1.18c.25-.74-.08-1.77-1.58-3.22,1.5,1.45,2.6,1.69,3.33,1.42a2.24,2.24,0,0,0,0-3.79c-.73-.27-1.83,0-3.33,1.42,1.5-1.45,1.83-2.48,1.58-3.22a2.07,2.07,0,0,0-1.92-1.18,2,2,0,0,0-2,1c-.3.73,0,1.9,1.41,3.39-1.43-1.49-2.52-1.86-3.26-1.59a2.43,2.43,0,0,0,0,4.13c.74.27,1.83-.1,3.26-1.59"/><path class="cls-1" d="M7.16,82.76c.69.38,1.82.18,3.46-1.08C9,82.94,8.53,84.05,8.71,84.82a2,2,0,0,0,1.88,1.3,2,2,0,0,0,2.05-.9c.37-.68.19-1.75-1.07-3.41,1.26,1.66,2.32,2.06,3.08,1.89A1.89,1.89,0,0,0,16,82a1.93,1.93,0,0,0-.77-2c-.68-.38-1.81-.31-3.52.9,1.71-1.21,2.2-2.18,2.06-2.94A2.08,2.08,0,0,0,12,76.47a2,2,0,0,0-2.16.69c-.4.69-.3,1.88.89,3.56-1.19-1.68-2.21-2.21-3-2a2.44,2.44,0,0,0-.61,4.09"/><path class="cls-1" d="M9.74,70c.63.48,1.78.44,3.59-.56-1.81,1-2.42,2-2.36,2.82a2,2,0,0,0,1.66,1.57,2,2,0,0,0,2.17-.58c.46-.62.45-1.71-.55-3.53,1,1.82,2,2.38,2.76,2.33a2.21,2.21,0,0,0,1.11-3.61c-.61-.48-1.74-.57-3.6.37C16.38,67.85,17,67,17,66.19a2.07,2.07,0,0,0-1.48-1.71,2,2,0,0,0-2.24.37c-.5.61-.58,1.81.35,3.65C12.68,66.66,11.75,66,11,66a2.45,2.45,0,0,0-1.22,4"/><path class="cls-1" d="M17.85,57.71c-1.94.72-2.7,1.65-2.75,2.44A2,2,0,0,0,16.5,62a2.06,2.06,0,0,0,2.24-.25c.54-.55.69-1.62,0-3.58.72,2,1.61,2.66,2.39,2.73a2.23,2.23,0,0,0,1.64-3.41c-.53-.56-1.64-.82-3.62-.17,2-.65,2.73-1.44,2.82-2.21a2,2,0,0,0-1.2-1.9,2,2,0,0,0-2.28,0c-.58.53-.84,1.71-.2,3.67-.64-2-1.46-2.77-2.24-2.85a2.43,2.43,0,0,0-1.8,3.73c.55.56,1.69.7,3.63,0"/><path class="cls-1" d="M24.06,46.81c-2,.42-2.9,1.24-3.07,2a2,2,0,0,0,1.11,2,2.11,2.11,0,0,0,2.26.1c.62-.47.92-1.51.49-3.56.43,2,1.21,2.87,2,3.06a2,2,0,0,0,2-1A1.92,1.92,0,0,0,29,47.28c-.45-.64-1.5-1.06-3.55-.71,2.05-.35,2.9-1,3.11-1.77a2,2,0,0,0-.9-2,2,2,0,0,0-2.26-.33c-.67.44-1.08,1.57-.74,3.61-.34-2.05-1-3-1.8-3.16a2.13,2.13,0,0,0-2.1,1.07,2.08,2.08,0,0,0-.23,2.35c.46.64,1.56.94,3.58.52"/><path class="cls-1" d="M31.84,37c-8.37.66,1.34,8.83.71.65.09,2.06.76,3,1.47,3.3a2,2,0,0,0,2.08-.65,1.91,1.91,0,0,0,.49-2.12c-.34-.7-1.32-1.27-3.39-1.22,2.08,0,3-.61,3.34-1.28A2,2,0,0,0,36,33.47a2,2,0,0,0-2.18-.65c-.75.3-1.31,1.38-1.27,3.45,0-2.08-.59-3.09-1.32-3.4a2.15,2.15,0,0,0-2.23.75,2.07,2.07,0,0,0-.58,2.29c.36.7,1.39,1.16,3.47,1.05"/><path class="cls-1" d="M40.07,32.37c.74-.25,1.3-1.22,1.52-3.25-.22,2,.32,3.1,1,3.48a2,2,0,0,0,2.15-.33,1.92,1.92,0,0,0,.8-2c-.24-.75-1.11-1.45-3.17-1.71,2,.25,3.06-.15,3.5-.77a2,2,0,0,0-.27-2.24,2,2,0,0,0-2.06-1c-.78.2-1.51,1.15-1.76,3.22.26-2.06-.14-3.15-.81-3.55a2.11,2.11,0,0,0-2.31.41,2.05,2.05,0,0,0-.92,2.17c.26.76,1.19,1.33,3.28,1.57-2.09-.24-3.13.33-3.52,1a2,2,0,0,0,.47,2.21,2.09,2.09,0,0,0,2.13.77"/><path class="cls-1" d="M49.81,25.05c.76-.15,1.46-1,2-3-.52,2-.17,3.08.43,3.57a2.19,2.19,0,0,0,3.28-1.9c-.14-.77-.89-1.59-2.89-2.14a6.56,6.56,0,0,0,2.34.28,1.79,1.79,0,0,0,1.24-.52,2.07,2.07,0,0,0,.07-2.26,2,2,0,0,0-1.89-1.25,1.9,1.9,0,0,0-1.21.72,6,6,0,0,0-1,2.2c.56-2,.33-3.15-.27-3.65a2.12,2.12,0,0,0-2.35.08,2.07,2.07,0,0,0-1.23,2c.13.78,1,1.52,3,2.06-2-.55-3.15-.15-3.64.47A2,2,0,0,0,47.82,24a2.06,2.06,0,0,0,2,1.07"/><path class="cls-1" d="M60.53,19.27c.77-.05,1.59-.78,2.41-2.65-3,7.49,8.21,3.08.89-.35,1.87.81,3,.79,3.57.3a2,2,0,0,0,.4-2.22,2,2,0,0,0-1.68-1.52c-.79,0-1.8.61-2.63,2.55,3.61-7.72-8.8-2.84-.9.35-1.93-.84-3.1-.64-3.67-.07a2,2,0,0,0-.2,2.26,2.07,2.07,0,0,0,1.81,1.35"/><path class="cls-1" d="M72,15.15a1.74,1.74,0,0,0,1.27-.46,6.29,6.29,0,0,0,1.52-1.79c-4.12,7,7.64,4.28.92-.21,1.73,1.08,2.83,1.24,3.49.83a2.05,2.05,0,0,0,.73-2.14,2,2,0,0,0-1.43-1.75c-.78-.13-1.87.33-3,2.12,4.73-7.08-8.27-4.12-.94.22a6,6,0,0,0-2.24-.92,2,2,0,0,0-1.38.29,2,2,0,0,0-.53,2.21A2,2,0,0,0,72,15.15"/><path class="cls-1" d="M84,12.81a1.8,1.8,0,0,0,1.32-.27A6.37,6.37,0,0,0,87,11c-5.12,6.28,6.92,5.36.94-.07,1.55,1.33,2.61,1.64,3.33,1.35a2.08,2.08,0,0,0,1-2,2,2,0,0,0-1.16-1.95c-.75-.25-1.9.06-3.27,1.66,5.73-6.31-7.56-5.31-1,.07A6,6,0,0,0,84.88,8.8a2,2,0,0,0-1.4.08,2,2,0,0,0-.86,2.1A2,2,0,0,0,84,12.81"/><path class="cls-1" d="M96.12,12.27c.71.29,1.77,0,3.32-1.35-6,5.43,6.06,6.34,1,.07a6.23,6.23,0,0,0,1.77,1.55,1.78,1.78,0,0,0,1.32.27A2,2,0,0,0,104.8,11a2,2,0,0,0-.85-2.1,2,2,0,0,0-1.41-.08A6,6,0,0,0,100.46,10c6.6-5.38-6.69-6.38-.95-.07C98.13,8.37,97,8.06,96.23,8.31a2,2,0,0,0-1.16,1.95,2.06,2.06,0,0,0,1.05,2"/><path class="cls-1" d="M108.23,13.52c.66.41,1.76.25,3.49-.83-6.72,4.49,5,7.17.92.21a6.29,6.29,0,0,0,1.52,1.79,1.73,1.73,0,0,0,1.27.46,2,2,0,0,0,1.58-1.6,2,2,0,0,0-.53-2.21,1.93,1.93,0,0,0-1.38-.29,6.14,6.14,0,0,0-2.24.92c7.33-4.34-5.67-7.3-.93-.22-1.13-1.79-2.21-2.25-3-2.12a2,2,0,0,0-1.43,1.75,2.07,2.07,0,0,0,.73,2.14"/><path class="cls-1" d="M123.6,16.27c-7.32,3.43,3.91,7.84.88.35.82,1.87,1.64,2.6,2.41,2.65a2.07,2.07,0,0,0,1.81-1.35,2,2,0,0,0-.2-2.26c-.57-.57-1.74-.77-3.67.07,7.9-3.19-4.51-8.07-.89-.35-.84-1.94-1.84-2.57-2.64-2.55a2,2,0,0,0-1.68,1.52,2,2,0,0,0,.41,2.22c.59.5,1.69.51,3.57-.3"/><path class="cls-1" d="M132.47,21.88a6.46,6.46,0,0,0,2.32-.28c-2,.55-2.74,1.37-2.87,2.14a2.18,2.18,0,0,0,3.27,1.9c.6-.49,1-1.59.43-3.57.53,2,1.23,2.83,2,3a2.06,2.06,0,0,0,2-1.07,2,2,0,0,0,.14-2.26c-.48-.62-1.6-1-3.64-.47,2-.54,2.89-1.28,3-2.06a2.09,2.09,0,0,0-1.24-2,2.12,2.12,0,0,0-2.35-.08c-.6.5-.83,1.63-.27,3.65a6,6,0,0,0-1-2.2,1.9,1.9,0,0,0-1.2-.72,2,2,0,0,0-1.9,1.25,2.07,2.07,0,0,0,.07,2.26,1.8,1.8,0,0,0,1.25.52"/><path class="cls-1" d="M145.08,28.53c-2.05.26-2.93,1-3.17,1.71a1.94,1.94,0,0,0,.8,2,2,2,0,0,0,2.15.33c.65-.38,1.2-1.45,1-3.48.23,2,.78,3,1.52,3.25a2.07,2.07,0,0,0,2.13-.77,2,2,0,0,0,.47-2.21c-.4-.68-1.43-1.25-3.52-1,2.09-.24,3-.81,3.29-1.57a2.07,2.07,0,0,0-.93-2.17,2.11,2.11,0,0,0-2.31-.41c-.67.4-1.07,1.49-.81,3.56-.25-2.08-1-3-1.76-3.23a2,2,0,0,0-2.06,1,2.06,2.06,0,0,0-.27,2.24c.44.62,1.45,1,3.5.77"/><path class="cls-1" d="M150.82,38.14a1.94,1.94,0,0,0,.5,2.12,2,2,0,0,0,2.08.65c.71-.29,1.38-1.24,1.48-3.3-.64,8.18,9.07,0,.7-.65,2.08.11,3.11-.35,3.48-1.05a2.07,2.07,0,0,0-.59-2.29,2.15,2.15,0,0,0-2.23-.75c-.72.31-1.27,1.32-1.32,3.4,0-2.07-.51-3.15-1.27-3.45a2,2,0,0,0-2.18.65,2,2,0,0,0-.59,2.17c.34.67,1.26,1.24,3.34,1.28-2.07-.05-3.05.52-3.4,1.22"/><path class="cls-1" d="M158.91,44.8c.22.74,1.06,1.42,3.11,1.77-2.05-.35-3.1.07-3.54.71a1.9,1.9,0,0,0,.18,2.16,2,2,0,0,0,2,1c.75-.18,1.53-1,2-3.06-.43,2-.13,3.09.49,3.56a2.11,2.11,0,0,0,2.26-.1,2,2,0,0,0,1.11-2c-.17-.77-1.05-1.59-3.07-2,2,.42,3.13.12,3.58-.52a2.1,2.1,0,0,0-.22-2.35,2.15,2.15,0,0,0-2.11-1.07c-.76.19-1.46,1.11-1.8,3.15.34-2-.07-3.17-.74-3.6a2.33,2.33,0,0,0-3.16,2.38"/><path class="cls-1" d="M165.48,55.06c.09.77.84,1.56,2.82,2.21-2-.65-3.08-.39-3.62.17a1.87,1.87,0,0,0-.12,2.16,1.9,1.9,0,0,0,1.77,1.25c.77-.07,1.66-.77,2.38-2.73-.72,2-.57,3,0,3.58a2.06,2.06,0,0,0,2.24.25,2,2,0,0,0,1.4-1.8c-.06-.79-.82-1.72-2.75-2.44,1.93.72,3.08.58,3.62,0A2.43,2.43,0,0,0,171.4,54c-.78.08-1.6.89-2.24,2.85.64-2,.38-3.14-.19-3.67a2,2,0,0,0-2.29,0,2,2,0,0,0-1.2,1.9"/><path class="cls-1" d="M171.92,64.48a2.08,2.08,0,0,0-1.48,1.71c0,.77.6,1.66,2.47,2.6-1.87-.94-3-.85-3.61-.37a1.92,1.92,0,0,0-.46,2.12A1.89,1.89,0,0,0,170.41,72c.78,0,1.76-.51,2.77-2.33-1,1.82-1,2.91-.56,3.53a2,2,0,0,0,2.17.58,2,2,0,0,0,1.66-1.57c.06-.78-.55-1.82-2.36-2.82,1.81,1,3,1,3.59.56a2.45,2.45,0,0,0-1.22-4c-.79,0-1.72.64-2.64,2.48.92-1.84.84-3,.34-3.65a2,2,0,0,0-2.24-.37"/><path class="cls-1" d="M176.67,80.72c1.19-1.68,1.29-2.87.89-3.56a2,2,0,0,0-2.16-.69,2.07,2.07,0,0,0-1.72,1.46c-.14.76.34,1.73,2,2.94-1.71-1.21-2.84-1.28-3.51-.91a1.94,1.94,0,0,0-.78,2,1.89,1.89,0,0,0,1.33,1.71c.76.17,1.82-.23,3.09-1.89-1.27,1.66-1.44,2.73-1.08,3.41a2.32,2.32,0,0,0,3.93-.4c.18-.77-.27-1.88-1.91-3.14,1.64,1.26,2.77,1.46,3.47,1.08a2.15,2.15,0,0,0,.82-2.21,2.12,2.12,0,0,0-1.44-1.88c-.77-.16-1.79.37-3,2"/><path class="cls-1" d="M180.92,91.65c-.74-.27-1.83.1-3.26,1.59,1.43-1.49,1.71-2.66,1.42-3.39a2,2,0,0,0-2-1A2.06,2.06,0,0,0,175.13,90c-.26.74.07,1.77,1.58,3.22-1.51-1.45-2.61-1.69-3.34-1.42a2.24,2.24,0,0,0,0,3.79c.73.27,1.83,0,3.34-1.42-1.51,1.45-1.84,2.48-1.58,3.22a2.06,2.06,0,0,0,1.92,1.18,2,2,0,0,0,2-1c.29-.73,0-1.9-1.42-3.39,1.43,1.49,2.52,1.86,3.26,1.59a2.43,2.43,0,0,0,0-4.13"/><path class="cls-1" d="M187.32,89.51c0-1.34-.21-3-.34-4.83-.06-.93-.22-1.91-.34-3s-.25-2.14-.47-3.27a90.54,90.54,0,0,0-3.84-15.23,93.55,93.55,0,0,0-17.93-31,97.26,97.26,0,0,0-11.23-10.95c-1.82-1.42-3.45-2.75-5-3.81L146,16l-1.87-1.2c-1.13-.72-2-1.3-2.64-1.64l-1-.55-1-.55-1.15-.66-1.59-.82c-1.19-.61-2.64-1.38-4.35-2.12-.85-.38-1.75-.81-2.72-1.21L126.72,6a94.91,94.91,0,0,0-15.11-4.27,93.47,93.47,0,0,0-35.8,0A94.91,94.91,0,0,0,60.7,6L57.62,7.21c-1,.4-1.86.83-2.72,1.21-1.72.74-3.16,1.51-4.35,2.12L49,11.36,47.81,12l-1,.55-1,.55c-.63.34-1.52.92-2.65,1.64L41.38,16l-2.13,1.51c-1.55,1.06-3.18,2.39-5,3.81A96.49,96.49,0,0,0,23,32.23a93.75,93.75,0,0,0-17.92,31A91.62,91.62,0,0,0,1.25,78.46C1,79.59.93,80.69.79,81.73s-.28,2-.35,3C.31,86.54.15,88.17.1,89.51,0,92.18,0,93.71,0,93.71s0,1.53.1,4.21c0,1.34.21,3,.34,4.83.07.93.22,1.91.35,3s.24,2.14.46,3.27a93.49,93.49,0,0,0,11.32,31.6A93,93,0,0,0,23,155.2a96.49,96.49,0,0,0,11.24,11c1.81,1.42,3.44,2.75,5,3.8l2.13,1.51,1.87,1.2c1.13.73,2,1.3,2.65,1.65l1,.55,1,.55,1.15.66,1.59.82c1.19.61,2.63,1.37,4.35,2.12.86.37,1.75.81,2.72,1.2l3.08,1.22a96,96,0,0,0,15.11,4.27,93.47,93.47,0,0,0,35.8,0,96,96,0,0,0,15.11-4.27l3.08-1.22c1-.39,1.87-.83,2.72-1.2,1.71-.75,3.16-1.51,4.35-2.12l1.59-.82,1.15-.66,1-.55,1-.55c.63-.35,1.51-.92,2.64-1.65l1.87-1.2,2.13-1.51c1.55-1,3.18-2.38,5-3.8a97.26,97.26,0,0,0,11.23-11,93.55,93.55,0,0,0,17.93-31A90.78,90.78,0,0,0,186.17,109c.22-1.13.32-2.23.47-3.27s.28-2,.34-3c.13-1.87.3-3.49.34-4.83.07-2.68.1-4.21.1-4.21s0-1.53-.1-4.2m-3,8.28c-.05,1.29-.2,2.86-.33,4.67-.06.9-.22,1.85-.34,2.86s-.23,2.06-.45,3.16a87.8,87.8,0,0,1-3.72,14.73,89.19,89.19,0,0,1-7.23,15.85,90.24,90.24,0,0,1-10.11,14.15,92.79,92.79,0,0,1-10.88,10.6c-1.75,1.37-3.33,2.66-4.83,3.68-.73.53-1.42,1-2.06,1.46s-1.27.81-1.81,1.17c-1.1.7-1.95,1.25-2.56,1.59l-.93.53-.92.53-1.11.63-1.54.8c-1.16.59-2.55,1.33-4.21,2.05-.83.37-1.7.79-2.64,1.17l-3,1.17A92.16,92.16,0,0,1,111,182.73a90.65,90.65,0,0,1-34.64,0,92.46,92.46,0,0,1-14.63-4.14l-3-1.17c-.94-.38-1.81-.8-2.63-1.17-1.67-.72-3.06-1.46-4.21-2.05l-1.55-.8-1.11-.63-.92-.53-.93-.53c-.61-.33-1.46-.89-2.55-1.59L43.07,169,41,167.49c-1.5-1-3.08-2.31-4.83-3.68a93.57,93.57,0,0,1-10.88-10.6A90.59,90.59,0,0,1,8,123.21a87.8,87.8,0,0,1-3.72-14.73c-.22-1.1-.31-2.16-.45-3.16s-.27-2-.34-2.86c-.12-1.81-.28-3.38-.32-4.67C3.06,95.2,3,93.71,3,93.71s0-1.48.1-4.07c0-1.3.2-2.87.32-4.67.07-.9.22-1.85.34-2.86S4,80,4.24,79A88.13,88.13,0,0,1,8,64.21a90.86,90.86,0,0,1,17.34-30,95.24,95.24,0,0,1,10.88-10.6C37.93,22.24,39.51,21,41,19.94l2.06-1.47,1.82-1.16c1.09-.7,1.94-1.26,2.55-1.59l.93-.53.92-.53L50.4,14l1.55-.8c1.15-.59,2.54-1.33,4.21-2.05.82-.36,1.69-.78,2.63-1.17l3-1.17A93.58,93.58,0,0,1,76.39,4.7,90.65,90.65,0,0,1,111,4.7a93.27,93.27,0,0,1,14.63,4.13l3,1.17c.94.39,1.81.81,2.64,1.17,1.66.72,3,1.46,4.21,2.05L137,14l1.11.64.92.53.93.53c.61.33,1.46.89,2.56,1.59l1.81,1.16,2.06,1.47c1.5,1,3.08,2.3,4.83,3.67a94.43,94.43,0,0,1,10.88,10.6,90.8,90.8,0,0,1,10.11,14.16,89.43,89.43,0,0,1,7.23,15.84A88.13,88.13,0,0,1,183.18,79c.22,1.09.31,2.16.45,3.16s.28,2,.34,2.86c.13,1.8.28,3.37.33,4.67.06,2.59.1,4.07.1,4.07s0,1.49-.1,4.08"/><path d="M93.71,25a68.69,68.69,0,1,0,31.58,129.65,13.08,13.08,0,0,0-1.76-.62c-5.79-1.37-7-.24-13.84-1.84-7-1.64-9.93-7.65-9.42-11.17-2.79-3.17-3-4.72-2.81-8.19-3-3.44-6.49-4.23-6.4-5.53.17-2.6,4.69-1.11,4.69-1.11.45-6.89,21.17,10.06,24,7.54,1.91-1.68-7.39-8.33-3.91-12.18.88.09,2.07.76,3.45,2.89a22.74,22.74,0,0,0,1.38,1.9c2.59,3.78,4.71,3.73,8.55,8.11s4.09,8.17,3.74,10.78c0,0-1.08,4.91-4.48,7.47a.52.52,0,0,1,.06.13A68.66,68.66,0,0,0,93.71,25Zm61.1,65.66A33.73,33.73,0,0,1,135,83.06a7.35,7.35,0,0,0-2.87-1.57c-5.68-1.41-6.75,6.3-11.27,8-3.5,1.3-7.07-1.54-10.71-2.41-5.27-1.25-10.72,1.91-14.14,6.1A20.8,20.8,0,0,1,92.65,97c-1.35,1-3.63,3.61-5.14,2.82,4,3.86,5.56,11.75,4.11,16.42-.75,2.36-1.23,3.15-1.93,3.75a12.87,12.87,0,0,1-1-2A28.42,28.42,0,0,1,85.76,123l-.08,0v.08l0,.07s.07,0,.18,0a2.35,2.35,0,0,1,2,0c.88.6.58,2.15.58,2.15a10.82,10.82,0,0,1-1.8,3.63c1.78,1.23.49,5.29.49,5.29a4.26,4.26,0,0,1,.53,3c-.48,3.49-8.73,8.51-8.94,10.07s-8.87-.58-8.71-1.7c1.12-8.25-5.9-14.19-9-17.21a8.49,8.49,0,0,0-1.15,3.32c-3,3.12,2.37,9.17,3.34,13.68-12.22-13.5-23.72-29.13-25.42-47.26C36.54,86,39.93,73.89,43.53,62.25c2.32-7.43,4.93-15.16,10.48-20.6.76-.52,1.54-1,2.32-1.52a10.09,10.09,0,0,0-1,1.47c-1.58,3-1.8,6.76-2.63,10.15a40.87,40.87,0,0,0-.88,4.92,17.48,17.48,0,0,0-.19,5.48,12.8,12.8,0,0,0,.44,1.58l-.05,0s4.07,18,4.07,22.94c0,4.2-.73,15.33-.95,18.67q-.22.84-.39,1.83a18.48,18.48,0,0,0,.38,7.13,23.86,23.86,0,0,0,4.38,9.33c.6.9,1,1.55,1.47,2.22h0a6.09,6.09,0,0,1,1.23.09h0c3,.68,4.71,3.08,7.39,3.45,4.54.61,13.3-9.58,15.74-12.54h0l0-.07c.21-.26.8-1,1.39-1.66a7.69,7.69,0,0,1-1.21-3.33A7.18,7.18,0,0,0,85,107.1a8.18,8.18,0,0,1-.86-4.72c0-.36-.28-1.07-.49-1.09a3.13,3.13,0,0,0-1.56.36,4.94,4.94,0,0,0-1,.82,31.34,31.34,0,0,0-1.63-3c-1.43-2.06-2.92-4.06-4.44-6a3.23,3.23,0,0,0-1.3-.91c-1.64-.58-1.16-1.32,0-2.15a28.6,28.6,0,0,1-3.14-4.19c-1.24-2-2.06-3.92-3.09-3.83a1.15,1.15,0,0,0-.7.39,39,39,0,0,0,2.36,6.74A2,2,0,0,1,69.52,91c-.06.18-.22.5-.9.9-1.38.8-2.19.31-3.83,1.07a7.33,7.33,0,0,0-1.12.64,10.29,10.29,0,0,0-1.38,1.17c-1,1-1,.84-2,1.75-.42.39-1,1-1.71,1.71a9,9,0,0,0-.76,1c1.75-4.18,1.09-7.38,1-11.29-.13-5.36-1.64-9.82-2.58-15a1.56,1.56,0,0,1,1.55-1.84h0a1.88,1.88,0,0,1,.59.24,4.91,4.91,0,0,0,3.09,5.37,31.57,31.57,0,0,1,4.44,2c.3.15.37.84.45,1.29.13.8.1,1.59,1.26,1.65a23.8,23.8,0,0,1,2.74.51c.89-1.59.57-3-1.12-3.78-1.06-.49-2.29-.64-3.36-1.13A6.69,6.69,0,0,1,63,75.41a76.58,76.58,0,0,1-4.28-7.67,6,6,0,0,1-.15-2.31c.79.16,1.58.3,2.37.49,1.67.42,3.39,1.36,5,1.18A23.9,23.9,0,0,0,73.31,65c3.56-1.68,3.34-1.62,6.42.46,2.77,1.87,6,3.07,9.42,1.31,2.8-1.42,3.21-1.28,5,1.21,1.39,2,2.77,2.3,4.87,1.19a1.66,1.66,0,0,1,2.57.67c.45.84,1,1.64,1.49,2.56,1.68-1.34,2.92-.4,4.35.39a17,17,0,0,0,4,1.26c.65.17,1.37.07,2,.27,2.47.76,4.75,2.58,7.56,1.21a1.18,1.18,0,0,1,.83.1c1.93.72,3.85,1.46,6.19,2.35a35.9,35.9,0,0,0-4.2-4.64c-3.44-2.65-7-5.08-10.67-7.48-2.21-1.47-4.62-2.62-6.87-4.05-4.15-2.63-8.82-11-12.93-13.68a3.37,3.37,0,0,1-.63-.56c-2.58-2.92-11,.08-13.54-2.88-4.25-5-3.44-8.23-9.14-11.07,1.76-.43,3.54-.78,5.31-1.08,8.65-1.49,20.08-4,28-.22,7.19,3.41,10.27,11.92,16.47,16.92,8.91,7.18,20.09,11.65,27.6,20.29,4.32,5,7.14,11.07,9.91,17,.5,1.07,1,2.41.24,3.33A3.16,3.16,0,0,1,154.81,90.69Zm-72.47-10c-1.55.36-4.35-1.21-5.41-3.06.8,0,1.5-.22,2,0,3.81,1.95,7.67-2,7.85-1.87s-.14.65-.3.91C85.32,78.54,84.43,80.19,82.34,80.68ZM84,73.08c-3.62,1.61-9.55,4.59-9.64,3.19,0-.37.67-.3,1-.46,2.59-1.27,5-2.84,7.86-3.59S84.3,72.93,84,73.08ZM80.72,84.85c1.28,1.21,1.41,2.91.12,3.81-1.07.74-1.36,1.92-.31,3.3-1.83-.37-2.89-1.18-4.36-1.49C77.93,88.51,81.88,88.84,80.72,84.85Zm7.63,7.41c0,.65-1.48,1.26-2,1.48-1,.39-2.15.9-3-.64,1.36-.44,3.24-1.65,4.52-1.35C88.06,91.81,88.34,92,88.35,92.26Z"/></g></g></svg>