<svg xmlns="http://www.w3.org/2000/svg" viewBox="0 0 263.81 84.01"><defs><style>.cls-1{fill:#fff;}</style></defs><title>Ресурс 2</title><g id="Слой_2" data-name="Слой 2"><g id="Layer_1" data-name="Layer 1"><path class="cls-1" d="M58.82,66.54h-.91l-.95.94-.13.16v.1a1.49,1.49,0,0,1-.39.11,15.59,15.59,0,0,1-2.32.23V14.14a23.65,23.65,0,0,1,.67-5.58,8.77,8.77,0,0,1,1.29-2.88,3,3,0,0,1,1.14-1,2.74,2.74,0,0,1,.89-.23h.2l1.09-1.09V2.42L58.3,1.33H8.75L7.66,2.42v.91L8.75,4.42h.19a3.12,3.12,0,0,1,1,.24,3,3,0,0,1,1.21,1.11,9.81,9.81,0,0,1,1.4,3.16,21.94,21.94,0,0,1,.62,5.9c0,5.32-.22,10.55-.66,15.57s-1,9.88-1.75,14.4-1.53,8.89-2.42,13c-.8,3.66-1.65,7.13-2.52,10.31a15.72,15.72,0,0,1-2.31-.23,1.36,1.36,0,0,1-.39-.11v-.12L2,66.54H1.09L0,67.62v15.3L1.09,84H2l.94-.93L3.06,83l0-.16a9.15,9.15,0,0,1,.84-1.85A15.83,15.83,0,0,1,6.6,77.41a17.63,17.63,0,0,1,4.63-3.27A14.73,14.73,0,0,1,18,72.73H42.06a14.45,14.45,0,0,1,6.61,1.41,18.38,18.38,0,0,1,4.7,3.28A14,14,0,0,1,56,80.92a9.7,9.7,0,0,1,.8,1.84l0,.18L57.91,84h.91l1.08-1.09V67.62ZM38.4,6V68.09H10.77c.78-3.33,1.59-7,2.43-10.76,1-4.4,1.84-9.33,2.6-14.63s1.39-11.13,1.87-17.37c.46-5.89.7-12.4.73-19.36Z"/><path class="cls-1" d="M123.28,17.08h0A34.06,34.06,0,0,0,110.11,4.45,39.59,39.59,0,0,0,90.88,0h-2a49.66,49.66,0,0,0-11.68,1.6,26.44,26.44,0,0,0-8.25,3.71l-.09.06-.54,1-.46,10.27,3,.6.26-.71a19.48,19.48,0,0,1,6.07-9,20.59,20.59,0,0,1,12.27-4.2h1.18a22,22,0,0,1,13,3.94,25.37,25.37,0,0,1,8.52,11.26,44,44,0,0,1,3,15.85l-33.63-.37-1.34,1.32v1.56l1.34,1.33,33.63-.38a47.16,47.16,0,0,1-1.59,11.4,39.13,39.13,0,0,1-4.86,11.11,22.37,22.37,0,0,1-7.89,7.41,21.29,21.29,0,0,1-10.56,2.78H88.9a28.35,28.35,0,0,1-7.67-1.66,17.14,17.14,0,0,1-7.16-5.09,20,20,0,0,1-3.53-6.49l-.24-.73-3.09.59.58,10.09.5.88.14.15.09.07A24.55,24.55,0,0,0,73.62,71a44.25,44.25,0,0,0,7.95,2.15,51.57,51.57,0,0,0,6.82.84l.77,0h1.31a41.5,41.5,0,0,0,14.88-2.6,33.81,33.81,0,0,0,12-7.62,35,35,0,0,0,7.82-11.86A42.78,42.78,0,0,0,128,36.05C128,28.72,126.43,22.51,123.28,17.08Z"/><path class="cls-1" d="M187.7,66.54h-.91l-.95.94-.13.16v.1a1.62,1.62,0,0,1-.4.11,15.59,15.59,0,0,1-2.32.23V14.14a23.56,23.56,0,0,1,.68-5.58A9,9,0,0,1,185,5.68a3,3,0,0,1,1.14-1,2.72,2.72,0,0,1,.9-.23h.2l1.08-1.09V2.42l-1.08-1.09H137.63l-1.09,1.09v.91l1.09,1.09h.2a3.12,3.12,0,0,1,1,.24A3,3,0,0,1,140,5.77a10.27,10.27,0,0,1,1.4,3.16,22.35,22.35,0,0,1,.62,5.9c0,5.32-.23,10.55-.67,15.57s-1,9.88-1.75,14.4-1.53,8.89-2.42,13c-.8,3.66-1.64,7.13-2.51,10.31a15.72,15.72,0,0,1-2.32-.23,1.49,1.49,0,0,1-.39-.11v-.12l-1.09-1.08H130l-1.09,1.08v15.3L130,84h.91l1-.93L132,83l0-.18a8.2,8.2,0,0,1,.83-1.85,15.6,15.6,0,0,1,2.69-3.53,17.63,17.63,0,0,1,4.63-3.27,14.68,14.68,0,0,1,6.71-1.41H171a14.48,14.48,0,0,1,6.61,1.41,18.49,18.49,0,0,1,4.69,3.28,14.09,14.09,0,0,1,2.66,3.5,9.49,9.49,0,0,1,.79,1.84l0,.18L186.79,84h.91l1.09-1.09V67.62ZM167.28,6V68.09H139.65c.79-3.39,1.61-7,2.43-10.76,1-4.42,1.85-9.34,2.61-14.63s1.38-11.13,1.87-17.37c.45-5.89.7-12.4.72-19.36Z"/><path class="cls-1" d="M262.52,69.67h0a7.9,7.9,0,0,0-.86-.28c-.55-.12-1-.42-1.5-1.52a8,8,0,0,1-.48-3.14V9.66a9.06,9.06,0,0,1,.44-3.18,5.31,5.31,0,0,1,.9-1.1l.23-.07.18-.06a9.79,9.79,0,0,0,1.25-.53,5.44,5.44,0,0,1,.5-.22l.67-.27-.57-3h-20.3l-.55,3,.68.27c2,.75,3,2,3.16,3.71.19,2.8-1.4,6.43-4.84,11.09L215.45,53.72c-.71.88-1.39,1.74-2.06,2.59l-.74.93V9.35a7.69,7.69,0,0,1,.51-3.1c.17-.43.51-.82,1.67-1.4a4.67,4.67,0,0,1,.89-.28l.76-.19-.39-3.14H197.44l-.32,3.19.79.15a4.11,4.11,0,0,1,.92.27,3.44,3.44,0,0,1,1.8,1.66A8.45,8.45,0,0,1,201,9.66V64.72a10.84,10.84,0,0,1-.45,3.36,1.1,1.1,0,0,1-.58.72l-.34.18a2.34,2.34,0,0,1-.27.14,8,8,0,0,0-1.07.46,3.42,3.42,0,0,1-.59.26l-.71.24.5,3H217.9l.6-2.95-.66-.29c-2.11-.9-3.16-2.14-3.22-3.78-.09-2.78,1.49-6.4,4.85-11l25.85-34.54c.89-1.15,1.8-2.29,2.77-3.45V65a9.89,9.89,0,0,1-.41,3,2.33,2.33,0,0,1-1.54,1.36l-.41.15a3.88,3.88,0,0,1-.63.21l-.78.16.31,3.18h18.66l.38-3.13-.75-.19A2.75,2.75,0,0,1,262.52,69.67Zm-.21.43Z"/></g></g></svg>