<svg width="20" height="20" viewBox="0 0 20 20" fill="none" xmlns="http://www.w3.org/2000/svg">
<path d="M7.91699 17.5C8.60735 17.5 9.16699 16.9404 9.16699 16.25C9.16699 15.5596 8.60735 15 7.91699 15C7.22664 15 6.66699 15.5596 6.66699 16.25C6.66699 16.9404 7.22664 17.5 7.91699 17.5Z" fill="white"/>
<path d="M13.75 17.5C14.4404 17.5 15 16.9404 15 16.25C15 15.5596 14.4404 15 13.75 15C13.0596 15 12.5 15.5596 12.5 16.25C12.5 16.9404 13.0596 17.5 13.75 17.5Z" fill="white"/>
<path d="M17.3761 3.89153C17.328 3.8344 17.2674 3.78825 17.1985 3.75639C17.1297 3.72453 17.0543 3.70776 16.978 3.70727H6.21194L6.54806 4.70324H16.3006L14.9199 10.6791H7.16341L4.80026 3.47322C4.7747 3.39676 4.73031 3.32738 4.67088 3.27102C4.61145 3.21466 4.53875 3.17297 4.45897 3.14953L2.33886 2.52206C2.27367 2.50277 2.20517 2.49603 2.13728 2.50223C2.06939 2.50844 2.00343 2.52746 1.94316 2.55821C1.82146 2.62031 1.73036 2.72643 1.6899 2.85322C1.64944 2.98002 1.66295 3.11709 1.72743 3.2343C1.79192 3.3515 1.90212 3.43924 2.03377 3.4782L3.89016 4.02598L6.26365 11.2468L5.41561 11.9141L5.34838 11.9788C5.13862 12.2116 5.01972 12.5076 5.01217 12.8157C5.00461 13.1239 5.10888 13.4249 5.30702 13.667C5.44796 13.8321 5.62705 13.9631 5.82998 14.0495C6.03291 14.136 6.25403 14.1756 6.47566 14.165H15.1061C15.2432 14.165 15.3747 14.1125 15.4717 14.0191C15.5687 13.9257 15.6232 13.7991 15.6232 13.667C15.6232 13.5349 15.5687 13.4083 15.4717 13.3149C15.3747 13.2215 15.2432 13.169 15.1061 13.169H6.39293C6.33338 13.1671 6.27537 13.1503 6.22449 13.1205C6.17361 13.0906 6.13158 13.0486 6.10247 12.9986C6.07336 12.9485 6.05814 12.8921 6.0583 12.8347C6.05845 12.7773 6.07397 12.7209 6.10335 12.671L7.34956 11.6751H15.3336C15.4531 11.6779 15.57 11.6407 15.6643 11.5699C15.7585 11.4991 15.8244 11.399 15.8507 11.2866L17.4899 4.31481C17.5056 4.24057 17.5035 4.16386 17.4838 4.0905C17.4641 4.01715 17.4273 3.9491 17.3761 3.89153Z" fill="white"/>
</svg>
