<svg width="15" height="15" viewBox="0 0 15 15" fill="none" xmlns="http://www.w3.org/2000/svg">
<path fill-rule="evenodd" clip-rule="evenodd" d="M1.54396 4.35564C1.58751 4.31199 1.63923 4.27735 1.69618 4.25372C1.75313 4.23009 1.81418 4.21793 1.87584 4.21793C1.93749 4.21793 1.99855 4.23009 2.05549 4.25372C2.11244 4.27735 2.16417 4.31199 2.20771 4.35564L7.50084 9.6497L12.794 4.35564C12.8375 4.31206 12.8893 4.27748 12.9462 4.2539C13.0032 4.23031 13.0642 4.21817 13.1258 4.21817C13.1875 4.21817 13.2485 4.23031 13.3054 4.2539C13.3624 4.27748 13.4141 4.31206 13.4577 4.35564C13.5013 4.39922 13.5359 4.45096 13.5595 4.5079C13.583 4.56485 13.5952 4.62588 13.5952 4.68751C13.5952 4.74915 13.583 4.81018 13.5595 4.86712C13.5359 4.92407 13.5013 4.97581 13.4577 5.01939L7.83271 10.6444C7.78917 10.688 7.73744 10.7227 7.68049 10.7463C7.62355 10.7699 7.56249 10.7821 7.50084 10.7821C7.43918 10.7821 7.37813 10.7699 7.32118 10.7463C7.26423 10.7227 7.21251 10.688 7.16896 10.6444L1.54396 5.01939C1.50031 4.97585 1.46568 4.92412 1.44204 4.86717C1.41841 4.81022 1.40625 4.74917 1.40625 4.68751C1.40625 4.62586 1.41841 4.56481 1.44204 4.50786C1.46568 4.45091 1.50031 4.39918 1.54396 4.35564Z" fill="#222222"/>
</svg>
