<svg width="24" height="24" viewBox="0 0 24 24" fill="none" xmlns="http://www.w3.org/2000/svg">
<path d="M17.9898 1.59601C16.981 1.489 15.9672 1.43692 14.9528 1.44001C11.5898 1.44001 9.4998 3.58201 9.4998 7.03001V9.37101H6.6748C6.5422 9.37101 6.41502 9.42369 6.32125 9.51746C6.22748 9.61122 6.1748 9.7384 6.1748 9.87101V13.721C6.1748 13.8536 6.22748 13.9808 6.32125 14.0746C6.41502 14.1683 6.5422 14.221 6.6748 14.221H9.4998V21.941C9.4998 22.0736 9.55248 22.2008 9.64625 22.2946C9.74002 22.3883 9.8672 22.441 9.9998 22.441H13.9778C14.1104 22.441 14.2376 22.3883 14.3314 22.2946C14.4251 22.2008 14.4778 22.0736 14.4778 21.941V14.221H17.2938C17.4152 14.2211 17.5325 14.177 17.6237 14.0969C17.715 14.0169 17.774 13.9064 17.7898 13.786L18.2868 9.93601C18.2961 9.86544 18.2901 9.79371 18.2694 9.72562C18.2487 9.65752 18.2138 9.59463 18.1668 9.54115C18.1198 9.48766 18.062 9.44482 17.9972 9.41548C17.9323 9.38614 17.862 9.37098 17.7908 9.37101H14.4778V7.41201C14.4778 6.44201 14.6728 6.03701 15.8858 6.03701H17.9248C18.0574 6.03701 18.1846 5.98433 18.2784 5.89056C18.3721 5.7968 18.4248 5.66962 18.4248 5.53701V2.09201C18.4249 1.97062 18.3808 1.85335 18.3007 1.76209C18.2207 1.67082 18.1102 1.61179 17.9898 1.59601ZM17.4248 5.03601L15.8848 5.03701C13.7278 5.03701 13.4778 6.39301 13.4778 7.41201V9.87201C13.4778 10.0044 13.5303 10.1315 13.6239 10.2252C13.7175 10.3189 13.8444 10.3717 13.9768 10.372H17.2228L16.8538 13.222H13.9778C13.8452 13.222 13.718 13.2747 13.6243 13.3685C13.5305 13.4622 13.4778 13.5894 13.4778 13.722V21.44H10.4998V13.722C10.4998 13.5894 10.4471 13.4622 10.3534 13.3685C10.2596 13.2747 10.1324 13.222 9.9998 13.222H7.1758V10.372H9.9998C10.1324 10.372 10.2596 10.3193 10.3534 10.2256C10.4471 10.1318 10.4998 10.0046 10.4998 9.87201V7.03001C10.4998 4.15601 12.1648 2.44001 14.9528 2.44001C15.9618 2.44001 16.8728 2.49501 17.4248 2.54301V5.03601Z" fill="white"/>
</svg>
