<svg width="35" height="35" viewBox="0 0 35 35" fill="none" xmlns="http://www.w3.org/2000/svg">
<path d="M17.5 11.2109C16.2561 11.2109 15.0402 11.5798 14.006 12.2708C12.9718 12.9619 12.1657 13.9441 11.6897 15.0933C11.2137 16.2425 11.0891 17.507 11.3318 18.7269C11.5744 19.9469 12.1734 21.0675 13.053 21.947C13.9325 22.8266 15.0531 23.4256 16.2731 23.6682C17.493 23.9109 18.7575 23.7863 19.9067 23.3103C21.0559 22.8343 22.0381 22.0282 22.7292 20.994C23.4202 19.9598 23.7891 18.7439 23.7891 17.5C23.7891 15.832 23.1265 14.2324 21.947 13.053C20.7676 11.8735 19.168 11.2109 17.5 11.2109V11.2109ZM17.5 22.1484C16.5806 22.1484 15.6819 21.8758 14.9175 21.365C14.153 20.8543 13.5572 20.1283 13.2054 19.2789C12.8536 18.4295 12.7615 17.4948 12.9409 16.5931C13.1202 15.6914 13.563 14.8632 14.2131 14.2131C14.8632 13.563 15.6914 13.1202 16.5931 12.9409C17.4948 12.7615 18.4295 12.8536 19.2789 13.2054C20.1283 13.5572 20.8543 14.153 21.365 14.9175C21.8758 15.6819 22.1484 16.5806 22.1484 17.5C22.1448 18.7317 21.6539 19.912 20.783 20.783C19.912 21.6539 18.7317 22.1448 17.5 22.1484ZM23.5156 4.10156H11.4844C9.52633 4.10156 7.64848 4.87939 6.26394 6.26394C4.87939 7.64848 4.10156 9.52633 4.10156 11.4844V23.5156C4.10156 25.4737 4.87939 27.3515 6.26394 28.7361C7.64848 30.1206 9.52633 30.8984 11.4844 30.8984H23.5156C25.4737 30.8984 27.3515 30.1206 28.7361 28.7361C30.1206 27.3515 30.8984 25.4737 30.8984 23.5156V11.4844C30.8984 9.52633 30.1206 7.64848 28.7361 6.26394C27.3515 4.87939 25.4737 4.10156 23.5156 4.10156V4.10156ZM29.2578 23.5156C29.2578 25.0385 28.6528 26.4991 27.576 27.576C26.4991 28.6528 25.0385 29.2578 23.5156 29.2578H11.4844C9.96145 29.2578 8.5009 28.6528 7.42404 27.576C6.34717 26.4991 5.74219 25.0385 5.74219 23.5156V11.4844C5.74219 9.96145 6.34717 8.5009 7.42404 7.42404C8.5009 6.34717 9.96145 5.74219 11.4844 5.74219H23.5156C25.0385 5.74219 26.4991 6.34717 27.576 7.42404C28.6528 8.5009 29.2578 9.96145 29.2578 11.4844V23.5156ZM25.9766 10.3906C25.9766 10.661 25.8964 10.9254 25.7462 11.1502C25.5959 11.375 25.3824 11.5503 25.1326 11.6537C24.8828 11.7572 24.6079 11.7843 24.3427 11.7315C24.0774 11.6788 23.8338 11.5486 23.6426 11.3574C23.4514 11.1662 23.3212 10.9226 23.2685 10.6574C23.2157 10.3921 23.2428 10.1172 23.3463 9.86742C23.4497 9.6176 23.625 9.40408 23.8498 9.25385C24.0746 9.10362 24.339 9.02344 24.6094 9.02344C24.972 9.02344 25.3197 9.16748 25.5761 9.42388C25.8325 9.68027 25.9766 10.028 25.9766 10.3906Z" fill="#222222"/>
</svg>
