<svg width="23" height="23" viewBox="0 0 23 23" fill="none" xmlns="http://www.w3.org/2000/svg">
<path d="M20.125 7.00781C18.9336 7.00781 17.791 6.53453 16.9485 5.69208C16.1061 4.84963 15.6328 3.70703 15.6328 2.51562C15.6328 2.37266 15.576 2.23554 15.4749 2.13445C15.3738 2.03336 15.2367 1.97656 15.0937 1.97656H11.5C11.357 1.97656 11.2199 2.03336 11.1188 2.13445C11.0177 2.23554 10.9609 2.37266 10.9609 2.51562V14.0156C10.9608 14.3694 10.8657 14.7167 10.6855 15.0212C10.5054 15.3257 10.2468 15.5763 9.93675 15.7468C9.62673 15.9173 9.27663 16.0014 8.92299 15.9904C8.56935 15.9794 8.22515 15.8737 7.9263 15.6843C7.62746 15.4949 7.38493 15.2288 7.22403 14.9137C7.06313 14.5986 6.98976 14.246 7.01157 13.8929C7.03339 13.5398 7.14959 13.199 7.34805 12.9061C7.54651 12.6132 7.81996 12.3789 8.13984 12.2277C8.23124 12.1838 8.30839 12.115 8.36242 12.0291C8.41645 11.9433 8.44519 11.844 8.44531 11.7426V8.00508C8.44508 7.92564 8.42759 7.8472 8.39404 7.77519C8.36049 7.70318 8.31168 7.63933 8.25101 7.58805C8.19033 7.53678 8.11923 7.49931 8.04264 7.47823C7.96604 7.45716 7.88579 7.45299 7.80742 7.46602C6.56306 7.68984 5.40831 8.26384 4.47862 9.12069C3.54893 9.97755 2.88284 11.0817 2.55847 12.3038C2.23409 13.5258 2.26489 14.8149 2.64725 16.0201C3.02961 17.2252 3.74767 18.2963 4.71722 19.1078C5.68677 19.9193 6.86761 20.4375 8.12124 20.6016C9.37487 20.7658 10.6493 20.569 11.7951 20.0345C12.9409 19.5 13.9105 18.6499 14.5902 17.5838C15.27 16.5177 15.6316 15.28 15.6328 14.0156V10.5027C17.0029 11.2777 18.5509 11.6832 20.125 11.6797C20.268 11.6797 20.4051 11.6229 20.5062 11.5218C20.6073 11.4207 20.6641 11.2836 20.6641 11.1406V7.54688C20.6641 7.40391 20.6073 7.26679 20.5062 7.1657C20.4051 7.06461 20.268 7.00781 20.125 7.00781ZM19.5859 10.5836C18.0797 10.4878 16.6313 9.9676 15.4082 9.0832C15.3283 9.02553 15.2342 8.99084 15.136 8.98292C15.0378 8.975 14.9393 8.99415 14.8512 9.03828C14.7627 9.08507 14.6885 9.15481 14.6364 9.24018C14.5842 9.32555 14.556 9.4234 14.5547 9.52344V14.0156C14.5535 15.0473 14.2659 16.0583 13.7238 16.9361C13.1817 17.8139 12.4066 18.5239 11.4847 18.9869C10.5628 19.45 9.53039 19.648 8.5026 19.5587C7.47481 19.4695 6.49199 19.0966 5.66369 18.4816C4.8354 17.8666 4.19417 17.0336 3.81148 16.0756C3.42879 15.1175 3.31968 14.072 3.49631 13.0556C3.67295 12.0392 4.12838 11.0918 4.81185 10.319C5.49531 9.54621 6.37996 8.97842 7.36719 8.67891V11.4281C6.91591 11.7097 6.54599 12.1043 6.29405 12.5728C6.0421 13.0413 5.91687 13.5674 5.93072 14.0992C5.94458 14.631 6.09706 15.1499 6.37307 15.6046C6.64908 16.0593 7.03905 16.4341 7.50438 16.6918C7.96971 16.9496 8.49428 17.0813 9.02617 17.074C9.55806 17.0667 10.0788 16.9207 10.5369 16.6503C10.995 16.38 11.3746 15.9947 11.6381 15.5326C11.9015 15.0705 12.0398 14.5476 12.0391 14.0156V3.05469H14.5816C14.7067 4.33947 15.2742 5.54092 16.1869 6.45369C17.0997 7.36647 18.3012 7.93389 19.5859 8.05898V10.5836Z" fill="white"/>
</svg>
